<svg width="99" height="101" viewBox="0 0 99 101" fill="none" xmlns="http://www.w3.org/2000/svg">
<path d="M10.774 64.644V16.161C10.774 14.7323 11.3416 13.3621 12.3518 12.3518C13.3621 11.3416 14.7323 10.774 16.161 10.774H64.644C66.0727 10.774 67.4429 11.3416 68.4532 12.3518C69.4634 13.3621 70.031 14.7323 70.031 16.161V40.4H80.8V16.161C80.8 11.8757 79.098 7.76585 76.0683 4.73521C73.0386 1.70458 68.9293 0.00132581 64.644 0H16.161C11.8748 0 7.76422 1.70267 4.73345 4.73345C1.70267 7.76422 0 11.8748 0 16.161V64.644C0.00132581 68.9293 1.70458 73.0386 4.73521 76.0683C7.76585 79.098 11.8757 80.8 16.161 80.8H47.136V70.031H16.161C14.7323 70.031 13.3621 69.4634 12.3518 68.4532C11.3416 67.4429 10.774 66.0727 10.774 64.644Z" fill="url(#paint0_linear_2_231)"/>
<path d="M51 22H30V33H51V22Z" fill="url(#paint1_linear_2_231)"/>
<path d="M96.8072 81.5741L93.7271 77.7211C93.3696 77.2752 93.1749 76.7206 93.1751 76.1491V72.5371C93.1713 69.0236 92.1288 65.5896 90.1787 62.6669C88.2286 59.7443 85.458 57.4634 82.2151 56.1111C82.9598 54.8454 83.3568 53.4055 83.3661 51.9371C83.3773 50.6421 83.0892 49.362 82.5243 48.1966C81.9594 47.0312 81.1331 46.0121 80.1096 45.2185C79.0861 44.425 77.8932 43.8786 76.6239 43.6218C75.3546 43.365 74.0431 43.4049 72.7916 43.7382C71.5402 44.0716 70.3827 44.6895 69.4093 45.5437C68.4359 46.3979 67.6729 47.4653 67.1799 48.6628C66.6868 49.8604 66.4769 51.1556 66.5667 52.4475C66.6564 53.7394 67.0433 54.9932 67.6972 56.1111C64.454 57.4635 61.6829 59.7443 59.732 62.6668C57.7811 65.5893 56.7374 69.0232 56.7321 72.5371V76.1481C56.7315 76.7168 56.5388 77.2686 56.1851 77.7141L53.1071 81.5671C52.3091 82.5652 51.8092 83.7684 51.6649 85.0382C51.5207 86.308 51.738 87.5927 52.2918 88.7444C52.8456 89.8961 53.7134 90.868 54.7953 91.5482C55.8772 92.2284 57.1292 92.5892 58.4071 92.5891H64.9721C65.3789 94.9429 66.604 97.0775 68.4312 98.616C70.2584 100.155 72.5704 100.998 74.9592 100.998C77.3479 100.998 79.6599 100.155 81.4871 98.616C83.3143 97.0775 84.5394 94.9429 84.9462 92.5891H91.5111C92.7891 92.5892 94.0411 92.2284 95.123 91.5482C96.2049 90.868 97.0727 89.8961 97.6265 88.7444C98.1803 87.5927 98.3976 86.308 98.2533 85.0382C98.1091 83.7684 97.6092 82.5652 96.8111 81.5671L96.8072 81.5741ZM74.9612 49.1371C75.5149 49.1371 76.0563 49.3013 76.5167 49.609C76.9772 49.9166 77.3361 50.3539 77.548 50.8656C77.7599 51.3772 77.8154 51.9402 77.7073 52.4833C77.5993 53.0265 77.3326 53.5254 76.941 53.917C76.5495 54.3086 76.0505 54.5752 75.5074 54.6833C74.9643 54.7913 74.4013 54.7359 73.8896 54.5239C73.378 54.312 72.9407 53.9531 72.633 53.4927C72.3254 53.0322 72.1611 52.4909 72.1611 51.9371C72.1611 51.1945 72.4561 50.4823 72.9812 49.9572C73.5063 49.4321 74.2185 49.1371 74.9612 49.1371ZM74.9612 95.3981C74.0628 95.3985 73.1844 95.1327 72.4369 94.6344C71.6894 94.1361 71.1063 93.4275 70.7611 92.5981H79.1611C78.8153 93.427 78.232 94.1352 77.4847 94.6334C76.7374 95.1316 75.8593 95.3977 74.9612 95.3981Z" fill="url(#paint2_linear_2_231)"/>
<defs>
<linearGradient id="paint0_linear_2_231" x1="80.8" y1="3.7976" x2="-4.6773e-06" y2="77.2448" gradientUnits="userSpaceOnUse">
<stop stop-color="#AB1BE2"/>
<stop offset="1" stop-color="#7D319A"/>
</linearGradient>
<linearGradient id="paint1_linear_2_231" x1="51" y1="22.517" x2="41.4395" y2="39.108" gradientUnits="userSpaceOnUse">
<stop stop-color="#AB1BE2"/>
<stop offset="1" stop-color="#7D319A"/>
</linearGradient>
<linearGradient id="paint2_linear_2_231" x1="98.2967" y1="46.1594" x2="43.0751" y2="86.8751" gradientUnits="userSpaceOnUse">
<stop stop-color="#AB1BE2"/>
<stop offset="1" stop-color="#7D319A"/>
</linearGradient>
</defs>
</svg>
