<svg width="24" height="24" viewBox="0 0 24 24" fill="none" xmlns="http://www.w3.org/2000/svg">
<path d="M15.498 0C14.2185 0.0884995 12.723 0.907495 11.8515 1.97399C11.0565 2.94148 10.4025 4.37847 10.6575 5.77497C12.0555 5.81847 13.5 4.97997 14.337 3.89548C15.12 2.88598 15.7125 1.45799 15.498 0Z" fill="#161C24"/>
<path d="M20.5553 8.05192C19.3268 6.51143 17.6003 5.61743 15.9698 5.61743C13.8174 5.61743 12.9069 6.64793 11.4114 6.64793C9.86938 6.64793 8.69789 5.62043 6.8364 5.62043C5.00791 5.62043 3.06092 6.73793 1.82643 8.64891C0.0909415 11.3399 0.38794 16.3994 3.20042 20.7088C4.20692 22.2508 5.55091 23.9848 7.3089 23.9998C8.87339 24.0148 9.31439 22.9963 11.4339 22.9858C13.5534 22.9738 13.9554 24.0133 15.5169 23.9968C17.2763 23.9833 18.6938 22.0618 19.7003 20.5198C20.4218 19.4144 20.6903 18.8579 21.2498 17.6099C17.1803 16.0604 16.5278 10.2734 20.5553 8.05192Z" fill="#161C24"/>
</svg>
