<svg width="20" height="20" viewBox="0 0 20 20" fill="none" xmlns="http://www.w3.org/2000/svg">
<path d="M18.3332 3.89168V13.95C18.3332 14.75 17.6832 15.5 16.8832 15.6L16.6082 15.6334C14.7915 15.875 11.9915 16.8 10.3915 17.6833C10.1748 17.8083 9.81651 17.8083 9.59151 17.6833L9.55814 17.6667C7.95815 16.7917 5.16653 15.875 3.35819 15.6334L3.1165 15.6C2.3165 15.5 1.6665 14.75 1.6665 13.95V3.88334C1.6665 2.89167 2.47481 2.14168 3.46648 2.22502C5.21648 2.36668 7.86648 3.25004 9.34981 4.17504L9.55814 4.30001C9.79981 4.45001 10.1999 4.45001 10.4415 4.30001L10.5832 4.20835C11.1082 3.88335 11.7748 3.55835 12.4998 3.26668V6.6667L14.1665 5.55835L15.8332 6.6667V2.31672C16.0582 2.27505 16.2749 2.25002 16.4749 2.23336H16.5248C17.5165 2.15002 18.3332 2.89168 18.3332 3.89168Z" stroke="#A798A8" stroke-width="1.2" stroke-linecap="round" stroke-linejoin="round"/>
<path d="M10 4.57501V17.075" stroke="#A798A8" stroke-width="1.2" stroke-linecap="round" stroke-linejoin="round"/>
<path d="M15.8333 2.31671V6.66669L14.1667 5.55834L12.5 6.66669V3.26667C13.5917 2.83334 14.8083 2.48338 15.8333 2.31671Z" stroke="#A798A8" stroke-width="1.2" stroke-linecap="round" stroke-linejoin="round"/>
</svg>
