<svg width="20" height="20" viewBox="0 0 20 20" fill="none" xmlns="http://www.w3.org/2000/svg">
<path d="M9.37533 4.99998V16.5917C9.37533 17.1833 8.77533 17.5917 8.23366 17.3667C6.68366 16.7167 4.75866 16.15 3.39199 15.9667L3.13366 15.9333C2.32533 15.8333 1.66699 15.0917 1.66699 14.2833V4.37498C1.66699 3.37498 2.47533 2.56665 3.47533 2.56665H3.53366C5.10033 2.69998 7.40866 3.43332 8.93366 4.25832C9.20866 4.40832 9.37533 4.68332 9.37533 4.99998Z" fill="#503559"/>
<path d="M16.525 2.56665H16.475C16.275 2.58332 16.0583 2.60832 15.8333 2.64998C14.8083 2.81665 13.5917 3.16665 12.5 3.59998C11.9833 3.80832 11.5 4.03332 11.075 4.25832C10.8 4.40832 10.625 4.69165 10.625 4.99998V16.5917C10.625 17.1833 11.225 17.5917 11.7667 17.3667C13.3167 16.7167 15.2417 16.15 16.6083 15.9667L16.8667 15.9333C17.675 15.8333 18.3333 15.0917 18.3333 14.2833V4.37498C18.3333 3.37498 17.525 2.56665 16.525 2.56665ZM16.0583 11.4416C16.0583 11.7667 15.825 11.9083 15.5417 11.75L14.6583 11.2583C14.5667 11.2083 14.4167 11.2083 14.3167 11.2583L13.4333 11.75C13.15 11.9083 12.9167 11.7667 12.9167 11.4416V8.88332C12.9167 8.49998 13.2333 8.18332 13.6167 8.18332H15.3667C15.75 8.18332 16.0667 8.49998 16.0667 8.88332V11.4416H16.0583Z" fill="#503559"/>
</svg>
