<svg width="24" height="24" viewBox="0 0 24 24" fill="none" xmlns="http://www.w3.org/2000/svg">
<path fill-rule="evenodd" clip-rule="evenodd" d="M0.333496 12.0175C0.333496 5.87164 5.24516 0.333332 12.0235 0.333332C18.6502 0.333332 23.6668 5.76648 23.6668 11.9825C23.6668 19.1916 17.7868 23.6667 12.0002 23.6667C10.0868 23.6667 7.9635 23.1526 6.26016 22.1477C5.66516 21.7855 5.1635 21.5168 4.52183 21.7271L2.16516 22.4281C1.57016 22.6151 1.0335 22.1477 1.2085 21.5168L1.99016 18.8995C2.1185 18.5373 2.09516 18.1517 1.9085 17.8479C0.905163 16.0018 0.333496 13.9805 0.333496 12.0175ZM10.4835 12.0175C10.4835 12.8471 11.1485 13.5131 11.9768 13.5248C12.8052 13.5248 13.4702 12.8471 13.4702 12.0292C13.4702 11.1996 12.8052 10.5336 11.9768 10.5336C11.1602 10.5219 10.4835 11.1996 10.4835 12.0175ZM15.8618 12.0292C15.8618 12.8471 16.5268 13.5248 17.3552 13.5248C18.1835 13.5248 18.8485 12.8471 18.8485 12.0292C18.8485 11.1996 18.1835 10.5336 17.3552 10.5336C16.5268 10.5336 15.8618 11.1996 15.8618 12.0292ZM6.5985 13.5248C5.78183 13.5248 5.10516 12.8471 5.10516 12.0292C5.10516 11.1996 5.77016 10.5336 6.5985 10.5336C7.42683 10.5336 8.09183 11.1996 8.09183 12.0292C8.09183 12.8471 7.42683 13.5131 6.5985 13.5248Z" fill="#503559"/>
</svg>
