<svg width="20" height="20" viewBox="0 0 20 20" fill="none" xmlns="http://www.w3.org/2000/svg">
<path fill-rule="evenodd" clip-rule="evenodd" d="M13.8876 1.6753C15.0864 1.60038 16.2685 2.01661 17.1592 2.83244C17.9751 3.72318 18.3913 4.90529 18.3247 6.11238V13.8877C18.3996 15.0948 17.9751 16.2769 17.1675 17.1676C16.2768 17.9834 15.0864 18.3997 13.8876 18.3247H6.11223C4.90513 18.3997 3.72301 17.9834 2.83226 17.1676C2.01643 16.2769 1.60019 15.0948 1.67512 13.8877V6.11238C1.60019 4.90529 2.01643 3.72318 2.83226 2.83244C3.72301 2.01661 4.90513 1.60038 6.11223 1.6753H13.8876ZM9.15078 14.0375L14.7534 8.41832C15.2612 7.90219 15.2612 7.06972 14.7534 6.56191L13.6711 5.4797C13.155 4.96356 12.3225 4.96356 11.8064 5.4797L11.2486 6.04578C11.1654 6.12903 11.1654 6.27055 11.2486 6.35379C11.2486 6.35379 12.5723 7.6691 12.5972 7.7024C12.6888 7.80229 12.7471 7.93549 12.7471 8.08533C12.7471 8.38502 12.5057 8.63477 12.1976 8.63477C12.0561 8.63477 11.9229 8.57649 11.8314 8.48492L10.4411 7.10302C10.3745 7.03642 10.258 7.03642 10.1914 7.10302L6.22045 11.0739C5.94573 11.3486 5.78756 11.7149 5.77924 12.1062L5.72929 14.0791C5.72929 14.1874 5.76259 14.2873 5.83751 14.3622C5.91243 14.4371 6.01233 14.4787 6.12055 14.4787H8.07688C8.47647 14.4787 8.85941 14.3205 9.15078 14.0375Z" fill="#503559"/>
</svg>
