<svg width="57" height="56" viewBox="0 0 57 56" fill="none" xmlns="http://www.w3.org/2000/svg">
<path d="M45.8711 0H11.1711C8.44018 0.00264752 5.82187 1.08867 3.89082 3.01972C1.95977 4.95078 0.873741 7.56908 0.871094 10.3V45C0.873741 47.7309 1.95977 50.3492 3.89082 52.2803C5.82187 54.2113 8.44018 55.2974 11.1711 55.3H45.8711C48.602 55.2974 51.2203 54.2113 53.1514 52.2803C55.0824 50.3492 56.1684 47.7309 56.1711 45V10.3C56.1684 7.56908 55.0824 4.95078 53.1514 3.01972C51.2203 1.08867 48.602 0.00264752 45.8711 0ZM11.1711 3.253H45.8711C47.7387 3.25749 49.5285 4.00159 50.8488 5.32245C52.1691 6.64332 52.9124 8.43341 52.9161 10.301V29.144L42.6831 18.91C42.5327 18.7579 42.3536 18.6371 42.1562 18.5546C41.9588 18.4722 41.747 18.4297 41.5331 18.4297C41.3192 18.4297 41.1074 18.4722 40.91 18.5546C40.7126 18.6371 40.5335 18.7579 40.3831 18.91L26.3531 32.944L17.2011 23.792C17.0507 23.6399 16.8716 23.5191 16.6742 23.4366C16.4768 23.3542 16.265 23.3117 16.0511 23.3117C15.8372 23.3117 15.6254 23.3542 15.428 23.4366C15.2306 23.5191 15.0515 23.6399 14.9011 23.792L4.12509 34.567V10.3C4.12879 8.43189 4.87254 6.64135 6.19349 5.3204C7.51445 3.99944 9.30499 3.2557 11.1731 3.252L11.1711 3.253ZM45.8711 52.044H11.1711C9.30299 52.0403 7.51245 51.2966 6.19149 49.9756C4.87054 48.6546 4.12679 46.8641 4.12309 44.996V39.165L16.0531 27.237L25.2051 36.389C25.3555 36.5411 25.5346 36.6619 25.732 36.7444C25.9294 36.8268 26.1412 36.8693 26.3551 36.8693C26.569 36.8693 26.7808 36.8268 26.9782 36.7444C27.1756 36.6619 27.3547 36.5411 27.5051 36.389L41.5351 22.358L52.9161 33.744V44.998C52.9119 46.8651 52.1684 48.6545 50.8484 49.9749C49.5284 51.2953 47.7382 52.0392 45.8711 52.044Z" fill="black"/>
<path d="M26.352 22.771C27.1036 22.771 27.8383 22.5482 28.4632 22.1306C29.0881 21.7131 29.5751 21.1196 29.8627 20.4252C30.1504 19.7309 30.2256 18.9668 30.079 18.2297C29.9324 17.4926 29.5704 16.8155 29.039 16.284C28.5076 15.7526 27.8305 15.3907 27.0933 15.244C26.3562 15.0974 25.5922 15.1727 24.8978 15.4603C24.2034 15.7479 23.61 16.2349 23.1924 16.8599C22.7749 17.4848 22.552 18.2195 22.552 18.971C22.552 19.9788 22.9524 20.9454 23.665 21.658C24.3776 22.3707 25.3442 22.771 26.352 22.771ZM26.352 18.434C26.4592 18.434 26.564 18.4658 26.6531 18.5254C26.7422 18.5849 26.8117 18.6696 26.8527 18.7686C26.8938 18.8676 26.9045 18.9766 26.8836 19.0818C26.8627 19.1869 26.8111 19.2835 26.7353 19.3593C26.6595 19.4351 26.5629 19.4867 26.4577 19.5076C26.3526 19.5285 26.2436 19.5178 26.1446 19.4768C26.0455 19.4357 25.9609 19.3663 25.9013 19.2771C25.8418 19.188 25.81 19.0832 25.81 18.976C25.8092 18.9046 25.8227 18.8337 25.8496 18.7675C25.8765 18.7013 25.9164 18.6412 25.9669 18.5906C26.0174 18.5401 26.0774 18.5001 26.1436 18.473C26.2097 18.4459 26.2806 18.4334 26.352 18.434Z" fill="black"/>
</svg>
