<svg width="329" height="41" viewBox="0 0 329 41" fill="none" xmlns="http://www.w3.org/2000/svg">
<path d="M5.2855 27.3H6.4295V35H5.2855V31.447H1.804V35H0.66V27.3H1.804V30.303H5.2855V27.3ZM10.6946 35.143C10.1886 35.143 9.72665 35.0128 9.30865 34.7525C8.89432 34.4922 8.56248 34.1438 8.31315 33.7075C8.06748 33.2675 7.94465 32.7817 7.94465 32.25C7.94465 31.8467 8.01615 31.4708 8.15915 31.1225C8.30215 30.7705 8.49832 30.4625 8.74765 30.1985C9.00065 29.9308 9.29398 29.7218 9.62765 29.5715C9.96132 29.4212 10.317 29.346 10.6946 29.346C11.2006 29.346 11.6608 29.4762 12.0751 29.7365C12.4931 29.9968 12.825 30.347 13.0706 30.787C13.32 31.227 13.4446 31.7147 13.4446 32.25C13.4446 32.6497 13.3731 33.0237 13.2301 33.372C13.0871 33.7203 12.8891 34.0283 12.6361 34.296C12.3868 34.56 12.0953 34.7672 11.7616 34.9175C11.4316 35.0678 11.076 35.143 10.6946 35.143ZM10.6946 33.999C10.999 33.999 11.2721 33.9183 11.5141 33.757C11.7561 33.5957 11.9468 33.383 12.0861 33.119C12.2291 32.8513 12.3006 32.5617 12.3006 32.25C12.3006 31.931 12.2273 31.6377 12.0806 31.37C11.9376 31.1023 11.7451 30.8897 11.5031 30.732C11.2611 30.5707 10.9916 30.49 10.6946 30.49C10.394 30.49 10.1208 30.5707 9.87515 30.732C9.63315 30.8933 9.44065 31.1078 9.29765 31.3755C9.15832 31.6432 9.08865 31.9347 9.08865 32.25C9.08865 32.5763 9.16198 32.8715 9.30865 33.1355C9.45532 33.3995 9.64965 33.6103 9.89165 33.768C10.1373 33.922 10.405 33.999 10.6946 33.999ZM14.9332 35V29.5H16.0772V30.083C16.2679 29.8557 16.5007 29.676 16.7757 29.544C17.0544 29.412 17.3551 29.346 17.6777 29.346C18.0701 29.346 18.4312 29.4413 18.7612 29.632C19.0912 29.819 19.3534 30.0683 19.5477 30.38C19.7421 30.0683 20.0006 29.819 20.3232 29.632C20.6496 29.4413 21.0089 29.346 21.4012 29.346C21.8082 29.346 22.1786 29.445 22.5122 29.643C22.8459 29.841 23.1117 30.1068 23.3097 30.4405C23.5077 30.7742 23.6067 31.1445 23.6067 31.5515V35H22.4627V31.843C22.4627 31.601 22.4041 31.3792 22.2867 31.1775C22.1694 30.9758 22.0117 30.8127 21.8137 30.688C21.6157 30.5633 21.3957 30.501 21.1537 30.501C20.9117 30.501 20.6917 30.5597 20.4937 30.677C20.2957 30.7943 20.1381 30.9538 20.0207 31.1555C19.9034 31.3572 19.8447 31.5863 19.8447 31.843V35H18.7007V31.843C18.7007 31.5863 18.6421 31.3572 18.5247 31.1555C18.4074 30.9538 18.2479 30.7943 18.0462 30.677C17.8482 30.5597 17.6282 30.501 17.3862 30.501C17.1479 30.501 16.9279 30.5633 16.7262 30.688C16.5282 30.8127 16.3706 30.9758 16.2532 31.1775C16.1359 31.3792 16.0772 31.601 16.0772 31.843V35H14.9332ZM27.6212 35.143C27.1152 35.143 26.6532 35.0128 26.2352 34.7525C25.8209 34.4922 25.489 34.1438 25.2397 33.7075C24.994 33.2675 24.8712 32.7817 24.8712 32.25C24.8712 31.8467 24.9427 31.4708 25.0857 31.1225C25.2287 30.7705 25.4249 30.4625 25.6742 30.1985C25.9272 29.9308 26.2205 29.7218 26.5542 29.5715C26.8879 29.4212 27.2435 29.346 27.6212 29.346C28.0429 29.346 28.4297 29.434 28.7817 29.61C29.1337 29.7823 29.4344 30.0225 29.6837 30.3305C29.933 30.6348 30.1164 30.9868 30.2337 31.3865C30.351 31.7825 30.3859 32.2042 30.3382 32.6515H26.0977C26.1454 32.9045 26.237 33.1337 26.3727 33.339C26.512 33.5407 26.688 33.7002 26.9007 33.8175C27.117 33.9348 27.3572 33.9953 27.6212 33.999C27.8999 33.999 28.1529 33.9293 28.3802 33.79C28.6112 33.6507 28.8 33.4582 28.9467 33.2125L30.1072 33.482C29.8872 33.9697 29.5554 34.3693 29.1117 34.681C28.668 34.989 28.1712 35.143 27.6212 35.143ZM26.0592 31.777H29.1832C29.1465 31.513 29.053 31.2747 28.9027 31.062C28.756 30.8457 28.5709 30.6752 28.3472 30.5505C28.1272 30.4222 27.8852 30.358 27.6212 30.358C27.3609 30.358 27.1189 30.4203 26.8952 30.545C26.6752 30.6697 26.4919 30.8402 26.3452 31.0565C26.2022 31.2692 26.1069 31.5093 26.0592 31.777Z" fill="#503559"/>
<path d="M13.6125 17.3111V14.763C13.6125 14.1126 14.1436 13.5853 14.7989 13.5853H17.194C17.5087 13.5853 17.8104 13.7094 18.0329 13.9302C18.2554 14.1511 18.3804 14.4507 18.3804 14.763V17.3111C18.3784 17.5816 18.4852 17.8416 18.6771 18.0335C18.8691 18.2254 19.1302 18.3333 19.4026 18.3333H21.0367C21.7999 18.3353 22.5325 18.0357 23.0728 17.5007C23.6132 16.9657 23.9168 16.2392 23.9168 15.4815V8.2224C23.9168 7.6104 23.6436 7.02989 23.1707 6.63724L17.6119 2.22991C16.6449 1.45716 15.2594 1.48211 14.3213 2.28917L8.88934 6.63724C8.39411 7.01831 8.09812 7.60055 8.0835 8.2224V15.4741C8.0835 17.0532 9.37298 18.3333 10.9636 18.3333H12.5604C13.1262 18.3334 13.586 17.8802 13.5901 17.3185L13.6125 17.3111Z" fill="#503559"/>
<path d="M299.66 35V27.3H302.124C302.535 27.3 302.905 27.4008 303.235 27.6025C303.565 27.8005 303.827 28.07 304.022 28.411C304.22 28.7483 304.319 29.1278 304.319 29.5495C304.319 29.9748 304.218 30.358 304.016 30.699C303.818 31.04 303.552 31.3095 303.219 31.5075C302.889 31.7055 302.524 31.8045 302.124 31.8045H300.43V35H299.66ZM300.43 31.0345H302.064C302.335 31.0345 302.582 30.9685 302.806 30.8365C303.033 30.7008 303.213 30.5193 303.345 30.292C303.481 30.061 303.549 29.8007 303.549 29.511C303.549 29.2213 303.481 28.9628 303.345 28.7355C303.213 28.5045 303.033 28.323 302.806 28.191C302.582 28.0553 302.335 27.9875 302.064 27.9875H300.43V31.0345ZM305.31 35V29.5H306.08V30.259C306.275 29.9803 306.528 29.7585 306.839 29.5935C307.151 29.4285 307.49 29.346 307.857 29.346C308.07 29.346 308.275 29.3735 308.473 29.4285L308.159 30.193C308.005 30.1453 307.855 30.1215 307.708 30.1215C307.411 30.1215 307.138 30.1948 306.889 30.3415C306.643 30.4882 306.447 30.6843 306.3 30.93C306.154 31.1757 306.08 31.4488 306.08 31.7495V35H305.31ZM311.297 35.143C310.791 35.143 310.329 35.0128 309.911 34.7525C309.496 34.4922 309.165 34.1438 308.915 33.7075C308.67 33.2675 308.547 32.7817 308.547 32.25C308.547 31.8467 308.618 31.4708 308.761 31.1225C308.904 30.7705 309.1 30.4625 309.35 30.1985C309.603 29.9308 309.896 29.7218 310.23 29.5715C310.563 29.4212 310.919 29.346 311.297 29.346C311.803 29.346 312.263 29.4762 312.677 29.7365C313.095 29.9968 313.427 30.347 313.673 30.787C313.922 31.227 314.047 31.7147 314.047 32.25C314.047 32.6497 313.975 33.0237 313.832 33.372C313.689 33.7203 313.491 34.0283 313.238 34.296C312.989 34.56 312.697 34.7672 312.364 34.9175C312.034 35.0678 311.678 35.143 311.297 35.143ZM311.297 34.373C311.671 34.373 312.006 34.2758 312.303 34.0815C312.604 33.8835 312.84 33.6232 313.013 33.3005C313.189 32.9778 313.277 32.6277 313.277 32.25C313.277 31.865 313.189 31.5112 313.013 31.1885C312.837 30.8622 312.598 30.6018 312.298 30.4075C312.001 30.2132 311.667 30.116 311.297 30.116C310.923 30.116 310.585 30.215 310.285 30.413C309.988 30.6073 309.751 30.8658 309.575 31.1885C309.403 31.5112 309.317 31.865 309.317 32.25C309.317 32.646 309.407 33.0053 309.586 33.328C309.766 33.647 310.006 33.9018 310.307 34.0925C310.607 34.2795 310.937 34.373 311.297 34.373ZM316.171 28.0645V29.5H317.821V30.27H316.171V35H315.401V30.27H314.647V29.5H315.401V28.0645C315.401 27.7968 315.465 27.5548 315.593 27.3385C315.725 27.1185 315.901 26.9443 316.121 26.816C316.341 26.684 316.585 26.618 316.853 26.618C317.047 26.618 317.234 26.6565 317.414 26.7335C317.597 26.8105 317.76 26.9242 317.903 27.0745L317.353 27.619C317.294 27.5457 317.219 27.4888 317.128 27.4485C317.04 27.4082 316.948 27.388 316.853 27.388C316.666 27.388 316.504 27.454 316.369 27.586C316.237 27.718 316.171 27.8775 316.171 28.0645ZM318.663 29.5H319.433V35H318.663V29.5ZM319.053 28.5375C318.929 28.5375 318.822 28.4972 318.734 28.4165C318.65 28.3322 318.608 28.2277 318.608 28.103C318.608 27.9783 318.65 27.8757 318.734 27.795C318.822 27.7107 318.929 27.6685 319.053 27.6685C319.174 27.6685 319.277 27.7107 319.361 27.795C319.449 27.8757 319.493 27.9783 319.493 28.103C319.493 28.2277 319.451 28.3322 319.367 28.4165C319.283 28.4972 319.178 28.5375 319.053 28.5375ZM320.801 35V26.75H321.571V35H320.801ZM325.272 35.143C324.766 35.143 324.304 35.0128 323.886 34.7525C323.472 34.4922 323.14 34.1438 322.891 33.7075C322.645 33.2675 322.522 32.7817 322.522 32.25C322.522 31.8467 322.594 31.4708 322.737 31.1225C322.88 30.7705 323.076 30.4625 323.325 30.1985C323.578 29.9308 323.872 29.7218 324.205 29.5715C324.539 29.4212 324.895 29.346 325.272 29.346C325.679 29.346 326.053 29.4267 326.394 29.588C326.739 29.7493 327.034 29.9748 327.28 30.2645C327.529 30.5542 327.716 30.8933 327.841 31.282C327.969 31.6707 328.022 32.0905 328 32.5415H323.336C323.38 32.8898 323.49 33.2015 323.666 33.4765C323.846 33.7515 324.073 33.9697 324.348 34.131C324.627 34.2887 324.935 34.3693 325.272 34.373C325.639 34.373 325.969 34.2777 326.262 34.087C326.559 33.8963 326.798 33.6342 326.977 33.3005L327.758 33.482C327.538 33.9697 327.207 34.3693 326.763 34.681C326.319 34.989 325.822 35.143 325.272 35.143ZM323.314 31.92H327.225C327.199 31.579 327.095 31.2673 326.911 30.985C326.732 30.699 326.499 30.4717 326.213 30.303C325.927 30.1307 325.613 30.0445 325.272 30.0445C324.931 30.0445 324.62 30.1288 324.337 30.2975C324.055 30.4625 323.824 30.688 323.644 30.974C323.465 31.2563 323.355 31.5717 323.314 31.92Z" fill="#A798A8"/>
<path fill-rule="evenodd" clip-rule="evenodd" d="M313.987 12.7885C310.764 12.7885 308.012 13.2758 308.012 15.2274C308.012 17.179 310.747 17.6838 313.987 17.6838C317.21 17.6838 319.962 17.1957 319.962 15.2449C319.962 13.2941 317.228 12.7885 313.987 12.7885Z" stroke="#A798A8" stroke-width="1.2" stroke-linecap="round" stroke-linejoin="round"/>
<path fill-rule="evenodd" clip-rule="evenodd" d="M313.987 10.0049C316.102 10.0049 317.816 8.28984 317.816 6.17476C317.816 4.05968 316.102 2.3454 313.987 2.3454C311.872 2.3454 310.157 4.05968 310.157 6.17476C310.15 8.2827 311.853 9.99778 313.96 10.0049H313.987Z" stroke="#A798A8" stroke-width="1.2" stroke-linecap="round" stroke-linejoin="round"/>
<path d="M64.595 35.143C64.3457 35.143 64.1018 35.1008 63.8635 35.0165C63.6288 34.9358 63.4143 34.8112 63.22 34.6425L63.7095 34.0485C63.8268 34.1475 63.9607 34.2263 64.111 34.285C64.2613 34.3437 64.4227 34.373 64.595 34.373C64.8517 34.373 65.0845 34.3052 65.2935 34.1695C65.5025 34.0302 65.6693 33.8505 65.794 33.6305C65.9223 33.4068 65.9865 33.1685 65.9865 32.9155V27.3H66.7565V32.9155C66.7565 33.3115 66.6593 33.6782 66.465 34.0155C66.2707 34.3528 66.0103 34.626 65.684 34.835C65.3577 35.0403 64.9947 35.143 64.595 35.143ZM70.495 35.143C69.989 35.143 69.527 35.0128 69.109 34.7525C68.6947 34.4922 68.3629 34.1438 68.1135 33.7075C67.8679 33.2675 67.745 32.7817 67.745 32.25C67.745 31.8467 67.8165 31.4708 67.9595 31.1225C68.1025 30.7705 68.2987 30.4625 68.548 30.1985C68.801 29.9308 69.0944 29.7218 69.428 29.5715C69.7617 29.4212 70.1174 29.346 70.495 29.346C71.001 29.346 71.4612 29.4762 71.8755 29.7365C72.2935 29.9968 72.6254 30.347 72.871 30.787C73.1204 31.227 73.245 31.7147 73.245 32.25C73.245 32.6497 73.1735 33.0237 73.0305 33.372C72.8875 33.7203 72.6895 34.0283 72.4365 34.296C72.1872 34.56 71.8957 34.7672 71.562 34.9175C71.232 35.0678 70.8764 35.143 70.495 35.143ZM70.495 34.373C70.869 34.373 71.2045 34.2758 71.5015 34.0815C71.8022 33.8835 72.0387 33.6232 72.211 33.3005C72.387 32.9778 72.475 32.6277 72.475 32.25C72.475 31.865 72.387 31.5112 72.211 31.1885C72.035 30.8622 71.7967 30.6018 71.496 30.4075C71.199 30.2132 70.8654 30.116 70.495 30.116C70.121 30.116 69.7837 30.215 69.483 30.413C69.186 30.6073 68.9495 30.8658 68.7735 31.1885C68.6012 31.5112 68.515 31.865 68.515 32.25C68.515 32.646 68.6049 33.0053 68.7845 33.328C68.9642 33.647 69.2044 33.9018 69.505 34.0925C69.8057 34.2795 70.1357 34.373 70.495 34.373ZM73.9029 32.8935V29.5H74.6729V32.7395C74.6729 33.0402 74.7462 33.3133 74.8929 33.559C75.0396 33.8047 75.2357 34.0008 75.4814 34.1475C75.7307 34.2942 76.0039 34.3675 76.3009 34.3675C76.6016 34.3675 76.8729 34.2942 77.1149 34.1475C77.3606 34.0008 77.5567 33.8047 77.7034 33.559C77.8501 33.3133 77.9234 33.0402 77.9234 32.7395V29.5H78.6934L78.6989 35H77.9289L77.9234 34.23C77.7291 34.5087 77.4761 34.7305 77.1644 34.8955C76.8564 35.0605 76.5191 35.143 76.1524 35.143C75.7381 35.143 75.3604 35.0422 75.0194 34.8405C74.6784 34.6388 74.4071 34.3675 74.2054 34.0265C74.0037 33.6855 73.9029 33.3078 73.9029 32.8935ZM79.7948 35V29.5H80.5648V30.259C80.7591 29.9803 81.0121 29.7585 81.3238 29.5935C81.6354 29.4285 81.9746 29.346 82.3413 29.346C82.5539 29.346 82.7593 29.3735 82.9573 29.4285L82.6438 30.193C82.4898 30.1453 82.3394 30.1215 82.1928 30.1215C81.8958 30.1215 81.6226 30.1948 81.3733 30.3415C81.1276 30.4882 80.9314 30.6843 80.7848 30.93C80.6381 31.1757 80.5648 31.4488 80.5648 31.7495V35H79.7948ZM88.4687 31.5955V35H87.6987V31.7495C87.6987 31.4488 87.6254 31.1757 87.4787 30.93C87.332 30.6843 87.1359 30.4882 86.8902 30.3415C86.6445 30.1948 86.3714 30.1215 86.0707 30.1215C85.7737 30.1215 85.5005 30.1948 85.2512 30.3415C85.0055 30.4882 84.8094 30.6843 84.6627 30.93C84.516 31.1757 84.4427 31.4488 84.4427 31.7495V35H83.6727V29.5H84.4427V30.259C84.637 29.9803 84.89 29.7585 85.2017 29.5935C85.5134 29.4285 85.8525 29.346 86.2192 29.346C86.6335 29.346 87.0112 29.4468 87.3522 29.6485C87.6932 29.8502 87.9645 30.1215 88.1662 30.4625C88.3679 30.8035 88.4687 31.1812 88.4687 31.5955ZM93.9837 29.5H94.7537V35H93.9837L93.9562 33.977C93.7766 34.3253 93.5254 34.6077 93.2027 34.824C92.8801 35.0367 92.4951 35.143 92.0477 35.143C91.6444 35.143 91.2667 35.0678 90.9147 34.9175C90.5627 34.7635 90.2529 34.5527 89.9852 34.285C89.7176 34.0173 89.5086 33.7075 89.3582 33.3555C89.2079 33.0035 89.1327 32.6258 89.1327 32.2225C89.1327 31.8265 89.2061 31.4543 89.3527 31.106C89.5031 30.7577 89.7084 30.4515 89.9687 30.1875C90.2327 29.9235 90.5371 29.7182 90.8817 29.5715C91.2301 29.4212 91.6022 29.346 91.9982 29.346C92.4566 29.346 92.8562 29.456 93.1972 29.676C93.5382 29.8923 93.8096 30.1765 94.0112 30.5285L93.9837 29.5ZM92.0312 34.395C92.4236 34.395 92.7609 34.2997 93.0432 34.109C93.3256 33.9147 93.5419 33.6543 93.6922 33.328C93.8462 33.0017 93.9232 32.6423 93.9232 32.25C93.9232 31.8467 93.8462 31.4837 93.6922 31.161C93.5382 30.8347 93.3201 30.5762 93.0377 30.3855C92.7554 30.1948 92.4199 30.0995 92.0312 30.0995C91.6426 30.0995 91.2869 30.1967 90.9642 30.391C90.6452 30.5817 90.3904 30.8402 90.1997 31.1665C90.0127 31.4928 89.9192 31.854 89.9192 32.25C89.9192 32.6497 90.0164 33.0127 90.2107 33.339C90.4051 33.6617 90.6617 33.9183 90.9807 34.109C91.3034 34.2997 91.6536 34.395 92.0312 34.395ZM95.9295 35V26.75H96.6995V35H95.9295Z" fill="#A798A8"/>
<path d="M80.577 2.32416H77.4612C74.8987 2.32416 73.292 4.13832 73.292 6.70666V13.635C73.292 16.2033 74.8912 18.0175 77.4612 18.0175H84.8145C87.3853 18.0175 88.9845 16.2033 88.9845 13.635V10.2783" stroke="#A798A8" stroke-width="1.2" stroke-linecap="round" stroke-linejoin="round"/>
<path fill-rule="evenodd" clip-rule="evenodd" d="M78.3565 9.10074L84.584 2.87324C85.3599 2.09824 86.6174 2.09824 87.3932 2.87324L88.4074 3.88741C89.1832 4.66324 89.1832 5.92158 88.4074 6.69658L82.1499 12.9541C81.8107 13.2932 81.3507 13.4841 80.8707 13.4841H77.749L77.8274 10.3341C77.839 9.87074 78.0282 9.42908 78.3565 9.10074Z" stroke="#A798A8" stroke-width="1.2" stroke-linecap="round" stroke-linejoin="round"/>
<path d="M83.6377 3.83539L87.4427 7.64039" stroke="#A798A8" stroke-width="1.2" stroke-linecap="round" stroke-linejoin="round"/>
<path d="M217.24 27.3H218.197L221.002 35H220.182L219.583 33.35H215.859L215.26 35H214.44L217.24 27.3ZM216.14 32.58H219.297L217.718 28.246L216.14 32.58ZM222.029 35V26.75H222.799V35H222.029ZM224.124 35V26.75H224.894V35H224.124ZM232.425 35.143C231.905 35.143 231.415 35.0403 230.957 34.835C230.498 34.626 230.095 34.34 229.747 33.977C229.402 33.6103 229.131 33.185 228.933 32.701C228.738 32.217 228.641 31.7 228.641 31.15C228.641 30.6 228.738 30.083 228.933 29.599C229.131 29.115 229.402 28.6915 229.747 28.3285C230.095 27.9618 230.498 27.6758 230.957 27.4705C231.415 27.2615 231.905 27.157 232.425 27.157C233.049 27.157 233.622 27.3018 234.147 27.5915C234.671 27.8812 235.106 28.2662 235.45 28.7465L234.768 29.115C234.497 28.752 234.152 28.4642 233.734 28.2515C233.32 28.0352 232.884 27.927 232.425 27.927C232.004 27.927 231.609 28.0132 231.243 28.1855C230.88 28.3542 230.561 28.587 230.286 28.884C230.011 29.181 229.796 29.5238 229.642 29.9125C229.488 30.3012 229.411 30.7137 229.411 31.15C229.411 31.5937 229.488 32.0098 229.642 32.3985C229.8 32.7872 230.016 33.13 230.291 33.427C230.57 33.724 230.891 33.9568 231.254 34.1255C231.62 34.2905 232.011 34.373 232.425 34.373C232.902 34.373 233.344 34.2648 233.751 34.0485C234.161 33.8285 234.501 33.5425 234.768 33.1905L235.45 33.559C235.106 34.0393 234.671 34.4243 234.147 34.714C233.622 35 233.049 35.143 232.425 35.143ZM238.693 35.143C238.187 35.143 237.725 35.0128 237.307 34.7525C236.893 34.4922 236.561 34.1438 236.312 33.7075C236.066 33.2675 235.943 32.7817 235.943 32.25C235.943 31.8467 236.015 31.4708 236.158 31.1225C236.301 30.7705 236.497 30.4625 236.746 30.1985C236.999 29.9308 237.293 29.7218 237.626 29.5715C237.96 29.4212 238.316 29.346 238.693 29.346C239.199 29.346 239.659 29.4762 240.074 29.7365C240.492 29.9968 240.824 30.347 241.069 30.787C241.319 31.227 241.443 31.7147 241.443 32.25C241.443 32.6497 241.372 33.0237 241.229 33.372C241.086 33.7203 240.888 34.0283 240.635 34.296C240.385 34.56 240.094 34.7672 239.76 34.9175C239.43 35.0678 239.075 35.143 238.693 35.143ZM238.693 34.373C239.067 34.373 239.403 34.2758 239.7 34.0815C240 33.8835 240.237 33.6232 240.409 33.3005C240.585 32.9778 240.673 32.6277 240.673 32.25C240.673 31.865 240.585 31.5112 240.409 31.1885C240.233 30.8622 239.995 30.6018 239.694 30.4075C239.397 30.2132 239.064 30.116 238.693 30.116C238.319 30.116 237.982 30.215 237.681 30.413C237.384 30.6073 237.148 30.8658 236.972 31.1885C236.799 31.5112 236.713 31.865 236.713 32.25C236.713 32.646 236.803 33.0053 236.983 33.328C237.162 33.647 237.403 33.9018 237.703 34.0925C238.004 34.2795 238.334 34.373 238.693 34.373ZM242.101 32.8935V29.5H242.871V32.7395C242.871 33.0402 242.944 33.3133 243.091 33.559C243.238 33.8047 243.434 34.0008 243.68 34.1475C243.929 34.2942 244.202 34.3675 244.499 34.3675C244.8 34.3675 245.071 34.2942 245.313 34.1475C245.559 34.0008 245.755 33.8047 245.902 33.559C246.048 33.3133 246.122 33.0402 246.122 32.7395V29.5H246.892L246.897 35H246.127L246.122 34.23C245.927 34.5087 245.674 34.7305 245.363 34.8955C245.055 35.0605 244.717 35.143 244.351 35.143C243.936 35.143 243.559 35.0422 243.218 34.8405C242.877 34.6388 242.605 34.3675 242.404 34.0265C242.202 33.6855 242.101 33.3078 242.101 32.8935ZM247.993 35V29.5H248.763V30.259C248.957 29.9803 249.21 29.7585 249.522 29.5935C249.834 29.4285 250.173 29.346 250.54 29.346C250.752 29.346 250.958 29.3735 251.156 29.4285L250.842 30.193C250.688 30.1453 250.538 30.1215 250.391 30.1215C250.094 30.1215 249.821 30.1948 249.572 30.3415C249.326 30.4882 249.13 30.6843 248.983 30.93C248.836 31.1757 248.763 31.4488 248.763 31.7495V35H247.993ZM253.549 35.1045C253.248 35.0972 252.955 35.0422 252.669 34.9395C252.383 34.8368 252.134 34.6975 251.921 34.5215C251.708 34.3455 251.556 34.1457 251.464 33.922L252.13 33.636C252.189 33.779 252.297 33.911 252.454 34.032C252.616 34.1493 252.799 34.2447 253.004 34.318C253.21 34.3877 253.413 34.4225 253.615 34.4225C253.839 34.4225 254.048 34.3858 254.242 34.3125C254.436 34.2392 254.594 34.1347 254.715 33.999C254.84 33.8597 254.902 33.6965 254.902 33.5095C254.902 33.3078 254.836 33.1502 254.704 33.0365C254.572 32.9192 254.405 32.8275 254.203 32.7615C254.002 32.6918 253.795 32.6258 253.582 32.5635C253.193 32.4572 252.85 32.3398 252.553 32.2115C252.256 32.0832 252.024 31.92 251.855 31.722C251.69 31.5203 251.607 31.2618 251.607 30.9465C251.607 30.6128 251.701 30.325 251.888 30.083C252.079 29.8373 252.326 29.6485 252.63 29.5165C252.938 29.3808 253.267 29.313 253.615 29.313C254.062 29.313 254.469 29.4102 254.836 29.6045C255.206 29.7988 255.474 30.0573 255.639 30.38L255.017 30.7485C254.951 30.5982 254.847 30.468 254.704 30.358C254.561 30.248 254.398 30.1618 254.214 30.0995C254.035 30.0372 253.851 30.0042 253.664 30.0005C253.43 29.9968 253.212 30.0317 253.01 30.105C252.808 30.1747 252.645 30.2792 252.52 30.4185C252.399 30.5578 252.339 30.7283 252.339 30.93C252.339 31.1317 252.399 31.2857 252.52 31.392C252.641 31.4947 252.805 31.579 253.01 31.645C253.219 31.7073 253.454 31.7807 253.714 31.865C254.048 31.9713 254.361 32.0923 254.654 32.228C254.948 32.3637 255.184 32.5323 255.364 32.734C255.544 32.9357 255.632 33.1905 255.628 33.4985C255.628 33.8285 255.529 34.1163 255.331 34.362C255.133 34.6077 254.876 34.7965 254.561 34.9285C254.246 35.0568 253.908 35.1155 253.549 35.1045ZM258.953 35.143C258.447 35.143 257.985 35.0128 257.567 34.7525C257.153 34.4922 256.821 34.1438 256.572 33.7075C256.326 33.2675 256.203 32.7817 256.203 32.25C256.203 31.8467 256.275 31.4708 256.418 31.1225C256.561 30.7705 256.757 30.4625 257.006 30.1985C257.259 29.9308 257.552 29.7218 257.886 29.5715C258.22 29.4212 258.575 29.346 258.953 29.346C259.36 29.346 259.734 29.4267 260.075 29.588C260.42 29.7493 260.715 29.9748 260.961 30.2645C261.21 30.5542 261.397 30.8933 261.522 31.282C261.65 31.6707 261.703 32.0905 261.681 32.5415H257.017C257.061 32.8898 257.171 33.2015 257.347 33.4765C257.527 33.7515 257.754 33.9697 258.029 34.131C258.308 34.2887 258.616 34.3693 258.953 34.373C259.32 34.373 259.65 34.2777 259.943 34.087C260.24 33.8963 260.478 33.6342 260.658 33.3005L261.439 33.482C261.219 33.9697 260.887 34.3693 260.444 34.681C260 34.989 259.503 35.143 258.953 35.143ZM256.995 31.92H260.906C260.88 31.579 260.775 31.2673 260.592 30.985C260.412 30.699 260.18 30.4717 259.894 30.303C259.608 30.1307 259.294 30.0445 258.953 30.0445C258.612 30.0445 258.3 30.1288 258.018 30.2975C257.736 30.4625 257.505 30.688 257.325 30.974C257.145 31.2563 257.035 31.5717 256.995 31.92ZM264.334 35.1045C264.033 35.0972 263.74 35.0422 263.454 34.9395C263.168 34.8368 262.919 34.6975 262.706 34.5215C262.493 34.3455 262.341 34.1457 262.25 33.922L262.915 33.636C262.974 33.779 263.082 33.911 263.24 34.032C263.401 34.1493 263.584 34.2447 263.79 34.318C263.995 34.3877 264.198 34.4225 264.4 34.4225C264.624 34.4225 264.833 34.3858 265.027 34.3125C265.221 34.2392 265.379 34.1347 265.5 33.999C265.625 33.8597 265.687 33.6965 265.687 33.5095C265.687 33.3078 265.621 33.1502 265.489 33.0365C265.357 32.9192 265.19 32.8275 264.989 32.7615C264.787 32.6918 264.58 32.6258 264.367 32.5635C263.978 32.4572 263.636 32.3398 263.339 32.2115C263.042 32.0832 262.809 31.92 262.64 31.722C262.475 31.5203 262.393 31.2618 262.393 30.9465C262.393 30.6128 262.486 30.325 262.673 30.083C262.864 29.8373 263.111 29.6485 263.416 29.5165C263.724 29.3808 264.052 29.313 264.4 29.313C264.847 29.313 265.254 29.4102 265.621 29.6045C265.991 29.7988 266.259 30.0573 266.424 30.38L265.803 30.7485C265.737 30.5982 265.632 30.468 265.489 30.358C265.346 30.248 265.183 30.1618 265 30.0995C264.82 30.0372 264.637 30.0042 264.45 30.0005C264.215 29.9968 263.997 30.0317 263.795 30.105C263.593 30.1747 263.43 30.2792 263.306 30.4185C263.185 30.5578 263.124 30.7283 263.124 30.93C263.124 31.1317 263.185 31.2857 263.306 31.392C263.427 31.4947 263.59 31.579 263.795 31.645C264.004 31.7073 264.239 31.7807 264.499 31.865C264.833 31.9713 265.146 32.0923 265.44 32.228C265.733 32.3637 265.969 32.5323 266.149 32.734C266.329 32.9357 266.417 33.1905 266.413 33.4985C266.413 33.8285 266.314 34.1163 266.116 34.362C265.918 34.6077 265.661 34.7965 265.346 34.9285C265.031 35.0568 264.693 35.1155 264.334 35.1045Z" fill="#A798A8"/>
<path d="M238.5 18.3334H243.5C247.667 18.3334 249.333 16.6667 249.333 12.5V7.50002C249.333 3.33335 247.667 1.66669 243.5 1.66669H238.5C234.333 1.66669 232.667 3.33335 232.667 7.50002V12.5C232.667 16.6667 234.333 18.3334 238.5 18.3334Z" stroke="#A798A8" stroke-width="1.2" stroke-linecap="round" stroke-linejoin="round"/>
<path d="M246.316 12.725V6.31668C246.316 5.67501 245.8 5.20835 245.166 5.25835H245.133C244.016 5.35002 242.325 5.92503 241.375 6.51669L241.283 6.57503C241.133 6.6667 240.875 6.6667 240.716 6.57503L240.583 6.49169C239.641 5.90003 237.95 5.34168 236.833 5.25001C236.2 5.20001 235.683 5.67503 235.683 6.30836V12.725C235.683 13.2333 236.1 13.7167 236.608 13.775L236.758 13.8C237.908 13.95 239.691 14.5417 240.708 15.1L240.733 15.1084C240.875 15.1917 241.108 15.1917 241.241 15.1084C242.258 14.5417 244.05 13.9584 245.208 13.8L245.383 13.775C245.9 13.7167 246.316 13.2417 246.316 12.725Z" stroke="#A798A8" stroke-width="1.2" stroke-linecap="round" stroke-linejoin="round"/>
<path d="M241 6.75V14.7167" stroke="#A798A8" stroke-width="1.2" stroke-linecap="round" stroke-linejoin="round"/>
<path d="M130.66 35L132.151 27.3H132.712L134.868 32.965L137.013 27.3H137.574L139.07 35H138.283L137.145 29.1095L135.11 34.494H134.615L132.58 29.1095L131.441 35H130.66ZM143.515 29.5H144.329L141.321 37.75H140.501L141.502 35L139.528 29.5H140.369L141.887 33.9385L143.515 29.5ZM151.637 35.143C151.116 35.143 150.627 35.0403 150.169 34.835C149.71 34.626 149.307 34.34 148.959 33.977C148.614 33.6103 148.343 33.185 148.145 32.701C147.95 32.217 147.853 31.7 147.853 31.15C147.853 30.6 147.95 30.083 148.145 29.599C148.343 29.115 148.614 28.6915 148.959 28.3285C149.307 27.9618 149.71 27.6758 150.169 27.4705C150.627 27.2615 151.116 27.157 151.637 27.157C152.26 27.157 152.834 27.3018 153.359 27.5915C153.883 27.8812 154.317 28.2662 154.662 28.7465L153.98 29.115C153.709 28.752 153.364 28.4642 152.946 28.2515C152.532 28.0352 152.095 27.927 151.637 27.927C151.215 27.927 150.821 28.0132 150.455 28.1855C150.092 28.3542 149.773 28.587 149.498 28.884C149.223 29.181 149.008 29.5238 148.854 29.9125C148.7 30.3012 148.623 30.7137 148.623 31.15C148.623 31.5937 148.7 32.0098 148.854 32.3985C149.012 32.7872 149.228 33.13 149.503 33.427C149.782 33.724 150.103 33.9568 150.466 34.1255C150.832 34.2905 151.223 34.373 151.637 34.373C152.114 34.373 152.556 34.2648 152.963 34.0485C153.373 33.8285 153.712 33.5425 153.98 33.1905L154.662 33.559C154.317 34.0393 153.883 34.4243 153.359 34.714C152.834 35 152.26 35.143 151.637 35.143ZM157.905 35.143C157.399 35.143 156.937 35.0128 156.519 34.7525C156.105 34.4922 155.773 34.1438 155.524 33.7075C155.278 33.2675 155.155 32.7817 155.155 32.25C155.155 31.8467 155.227 31.4708 155.37 31.1225C155.513 30.7705 155.709 30.4625 155.958 30.1985C156.211 29.9308 156.505 29.7218 156.838 29.5715C157.172 29.4212 157.528 29.346 157.905 29.346C158.411 29.346 158.871 29.4762 159.286 29.7365C159.704 29.9968 160.036 30.347 160.281 30.787C160.531 31.227 160.655 31.7147 160.655 32.25C160.655 32.6497 160.584 33.0237 160.441 33.372C160.298 33.7203 160.1 34.0283 159.847 34.296C159.597 34.56 159.306 34.7672 158.972 34.9175C158.642 35.0678 158.287 35.143 157.905 35.143ZM157.905 34.373C158.279 34.373 158.615 34.2758 158.912 34.0815C159.212 33.8835 159.449 33.6232 159.621 33.3005C159.797 32.9778 159.885 32.6277 159.885 32.25C159.885 31.865 159.797 31.5112 159.621 31.1885C159.445 30.8622 159.207 30.6018 158.906 30.4075C158.609 30.2132 158.276 30.116 157.905 30.116C157.531 30.116 157.194 30.215 156.893 30.413C156.596 30.6073 156.36 30.8658 156.184 31.1885C156.011 31.5112 155.925 31.865 155.925 32.25C155.925 32.646 156.015 33.0053 156.195 33.328C156.374 33.647 156.615 33.9018 156.915 34.0925C157.216 34.2795 157.546 34.373 157.905 34.373ZM161.313 32.8935V29.5H162.083V32.7395C162.083 33.0402 162.156 33.3133 162.303 33.559C162.45 33.8047 162.646 34.0008 162.892 34.1475C163.141 34.2942 163.414 34.3675 163.711 34.3675C164.012 34.3675 164.283 34.2942 164.525 34.1475C164.771 34.0008 164.967 33.8047 165.114 33.559C165.26 33.3133 165.334 33.0402 165.334 32.7395V29.5H166.104L166.109 35H165.339L165.334 34.23C165.139 34.5087 164.886 34.7305 164.575 34.8955C164.267 35.0605 163.929 35.143 163.563 35.143C163.148 35.143 162.771 35.0422 162.43 34.8405C162.089 34.6388 161.817 34.3675 161.616 34.0265C161.414 33.6855 161.313 33.3078 161.313 32.8935ZM167.205 35V29.5H167.975V30.259C168.169 29.9803 168.422 29.7585 168.734 29.5935C169.046 29.4285 169.385 29.346 169.751 29.346C169.964 29.346 170.169 29.3735 170.367 29.4285L170.054 30.193C169.9 30.1453 169.75 30.1215 169.603 30.1215C169.306 30.1215 169.033 30.1948 168.783 30.3415C168.538 30.4882 168.342 30.6843 168.195 30.93C168.048 31.1757 167.975 31.4488 167.975 31.7495V35H167.205ZM172.761 35.1045C172.46 35.0972 172.167 35.0422 171.881 34.9395C171.595 34.8368 171.346 34.6975 171.133 34.5215C170.92 34.3455 170.768 34.1457 170.676 33.922L171.342 33.636C171.401 33.779 171.509 33.911 171.666 34.032C171.828 34.1493 172.011 34.2447 172.216 34.318C172.422 34.3877 172.625 34.4225 172.827 34.4225C173.051 34.4225 173.26 34.3858 173.454 34.3125C173.648 34.2392 173.806 34.1347 173.927 33.999C174.052 33.8597 174.114 33.6965 174.114 33.5095C174.114 33.3078 174.048 33.1502 173.916 33.0365C173.784 32.9192 173.617 32.8275 173.415 32.7615C173.214 32.6918 173.007 32.6258 172.794 32.5635C172.405 32.4572 172.062 32.3398 171.765 32.2115C171.468 32.0832 171.236 31.92 171.067 31.722C170.902 31.5203 170.819 31.2618 170.819 30.9465C170.819 30.6128 170.913 30.325 171.1 30.083C171.291 29.8373 171.538 29.6485 171.842 29.5165C172.15 29.3808 172.479 29.313 172.827 29.313C173.274 29.313 173.681 29.4102 174.048 29.6045C174.418 29.7988 174.686 30.0573 174.851 30.38L174.229 30.7485C174.163 30.5982 174.059 30.468 173.916 30.358C173.773 30.248 173.61 30.1618 173.426 30.0995C173.247 30.0372 173.063 30.0042 172.876 30.0005C172.642 29.9968 172.424 30.0317 172.222 30.105C172.02 30.1747 171.857 30.2792 171.732 30.4185C171.611 30.5578 171.551 30.7283 171.551 30.93C171.551 31.1317 171.611 31.2857 171.732 31.392C171.853 31.4947 172.017 31.579 172.222 31.645C172.431 31.7073 172.666 31.7807 172.926 31.865C173.26 31.9713 173.573 32.0923 173.866 32.228C174.16 32.3637 174.396 32.5323 174.576 32.734C174.756 32.9357 174.844 33.1905 174.84 33.4985C174.84 33.8285 174.741 34.1163 174.543 34.362C174.345 34.6077 174.088 34.7965 173.773 34.9285C173.458 35.0568 173.12 35.1155 172.761 35.1045ZM178.165 35.143C177.659 35.143 177.197 35.0128 176.779 34.7525C176.365 34.4922 176.033 34.1438 175.783 33.7075C175.538 33.2675 175.415 32.7817 175.415 32.25C175.415 31.8467 175.486 31.4708 175.629 31.1225C175.772 30.7705 175.969 30.4625 176.218 30.1985C176.471 29.9308 176.764 29.7218 177.098 29.5715C177.432 29.4212 177.787 29.346 178.165 29.346C178.572 29.346 178.946 29.4267 179.287 29.588C179.632 29.7493 179.927 29.9748 180.172 30.2645C180.422 30.5542 180.609 30.8933 180.733 31.282C180.862 31.6707 180.915 32.0905 180.893 32.5415H176.229C176.273 32.8898 176.383 33.2015 176.559 33.4765C176.739 33.7515 176.966 33.9697 177.241 34.131C177.52 34.2887 177.828 34.3693 178.165 34.373C178.532 34.373 178.862 34.2777 179.155 34.087C179.452 33.8963 179.69 33.6342 179.87 33.3005L180.651 33.482C180.431 33.9697 180.099 34.3693 179.655 34.681C179.212 34.989 178.715 35.143 178.165 35.143ZM176.207 31.92H180.117C180.092 31.579 179.987 31.2673 179.804 30.985C179.624 30.699 179.391 30.4717 179.105 30.303C178.819 30.1307 178.506 30.0445 178.165 30.0445C177.824 30.0445 177.512 30.1288 177.23 30.2975C176.948 30.4625 176.717 30.688 176.537 30.974C176.357 31.2563 176.247 31.5717 176.207 31.92ZM183.546 35.1045C183.245 35.0972 182.952 35.0422 182.666 34.9395C182.38 34.8368 182.131 34.6975 181.918 34.5215C181.705 34.3455 181.553 34.1457 181.462 33.922L182.127 33.636C182.186 33.779 182.294 33.911 182.452 34.032C182.613 34.1493 182.796 34.2447 183.002 34.318C183.207 34.3877 183.41 34.4225 183.612 34.4225C183.836 34.4225 184.045 34.3858 184.239 34.3125C184.433 34.2392 184.591 34.1347 184.712 33.999C184.837 33.8597 184.899 33.6965 184.899 33.5095C184.899 33.3078 184.833 33.1502 184.701 33.0365C184.569 32.9192 184.402 32.8275 184.201 32.7615C183.999 32.6918 183.792 32.6258 183.579 32.5635C183.19 32.4572 182.848 32.3398 182.551 32.2115C182.254 32.0832 182.021 31.92 181.852 31.722C181.687 31.5203 181.605 31.2618 181.605 30.9465C181.605 30.6128 181.698 30.325 181.885 30.083C182.076 29.8373 182.323 29.6485 182.628 29.5165C182.936 29.3808 183.264 29.313 183.612 29.313C184.059 29.313 184.466 29.4102 184.833 29.6045C185.203 29.7988 185.471 30.0573 185.636 30.38L185.015 30.7485C184.949 30.5982 184.844 30.468 184.701 30.358C184.558 30.248 184.395 30.1618 184.212 30.0995C184.032 30.0372 183.849 30.0042 183.662 30.0005C183.427 29.9968 183.209 30.0317 183.007 30.105C182.805 30.1747 182.642 30.2792 182.518 30.4185C182.397 30.5578 182.336 30.7283 182.336 30.93C182.336 31.1317 182.397 31.2857 182.518 31.392C182.639 31.4947 182.802 31.579 183.007 31.645C183.216 31.7073 183.451 31.7807 183.711 31.865C184.045 31.9713 184.358 32.0923 184.652 32.228C184.945 32.3637 185.181 32.5323 185.361 32.734C185.541 32.9357 185.629 33.1905 185.625 33.4985C185.625 33.8285 185.526 34.1163 185.328 34.362C185.13 34.6077 184.873 34.7965 184.558 34.9285C184.243 35.0568 183.905 35.1155 183.546 35.1045Z" fill="#A798A8"/>
<path d="M164.333 3.89168V13.95C164.333 14.75 163.683 15.5 162.883 15.6L162.608 15.6334C160.791 15.875 157.991 16.8 156.391 17.6833C156.175 17.8083 155.817 17.8083 155.592 17.6833L155.558 17.6667C153.958 16.7917 151.167 15.875 149.358 15.6334L149.116 15.6C148.316 15.5 147.667 14.75 147.667 13.95V3.88334C147.667 2.89167 148.475 2.14168 149.466 2.22502C151.216 2.36668 153.866 3.25004 155.35 4.17504L155.558 4.30001C155.8 4.45001 156.2 4.45001 156.442 4.30001L156.583 4.20835C157.108 3.88335 157.775 3.55835 158.5 3.26668V6.6667L160.167 5.55835L161.833 6.6667V2.31672C162.058 2.27505 162.275 2.25002 162.475 2.23336H162.525C163.517 2.15002 164.333 2.89168 164.333 3.89168Z" stroke="#A798A8" stroke-width="1.2" stroke-linecap="round" stroke-linejoin="round"/>
<path d="M156 4.57501V17.075" stroke="#A798A8" stroke-width="1.2" stroke-linecap="round" stroke-linejoin="round"/>
<path d="M161.833 2.31671V6.66669L160.167 5.55834L158.5 6.66669V3.26667C159.592 2.83334 160.808 2.48338 161.833 2.31671Z" stroke="#A798A8" stroke-width="1.2" stroke-linecap="round" stroke-linejoin="round"/>
</svg>
