<svg width="18" height="20" viewBox="0 0 18 20" fill="none" xmlns="http://www.w3.org/2000/svg">
<path d="M6.63118 17.3095V14.7539C6.63116 14.1039 7.16109 13.5757 7.81767 13.5713H10.2227C10.8824 13.5713 11.4173 14.1008 11.4173 14.7539V14.7539V17.3175C11.4171 17.8694 11.862 18.3204 12.4194 18.3334H14.0227C15.6211 18.3334 16.9168 17.0506 16.9168 15.4682V15.4682V8.19822C16.9083 7.57571 16.6131 6.99114 16.1151 6.61088L10.6316 2.23777C9.67094 1.47633 8.30533 1.47633 7.34468 2.23777L1.88518 6.61882C1.38538 6.99754 1.08965 7.58308 1.0835 8.20615V15.4682C1.0835 17.0506 2.37923 18.3334 3.97759 18.3334H5.58096C6.15212 18.3334 6.61514 17.875 6.61514 17.3095V17.3095" stroke="#A798A8" stroke-width="1.5" stroke-linecap="round" stroke-linejoin="round"/>
</svg>
