<svg width="20" height="20" viewBox="0 0 20 20" fill="none" xmlns="http://www.w3.org/2000/svg">
<path d="M7.61248 17.3111V14.763C7.61248 14.1126 8.14364 13.5853 8.79886 13.5853H11.194C11.5087 13.5853 11.8104 13.7094 12.0329 13.9302C12.2554 14.1511 12.3804 14.4507 12.3804 14.763V17.3111C12.3784 17.5816 12.4852 17.8416 12.6771 18.0335C12.8691 18.2254 13.1302 18.3333 13.4026 18.3333H15.0367C15.7999 18.3353 16.5325 18.0357 17.0728 17.5007C17.6132 16.9657 17.9168 16.2392 17.9168 15.4815V8.2224C17.9168 7.6104 17.6436 7.02989 17.1707 6.63724L11.6119 2.22991C10.6449 1.45716 9.25942 1.48211 8.32132 2.28917L2.88934 6.63724C2.39411 7.01831 2.09812 7.60055 2.0835 8.2224V15.4741C2.0835 17.0532 3.37298 18.3333 4.96364 18.3333H6.56041C7.12619 18.3334 7.58599 17.8802 7.59009 17.3185L7.61248 17.3111Z" fill="#503559"/>
</svg>
