<svg width="70" height="69" viewBox="0 0 70 69" fill="none" xmlns="http://www.w3.org/2000/svg">
<path d="M60.2633 27.269C59.7358 25.4752 59.0187 23.7428 58.1243 22.101L64.2803 14.486L55.5183 5.72398L47.9003 11.877C46.2628 10.9734 44.5293 10.2559 42.7323 9.73798L41.6983 0.000976562H29.2923L28.2583 9.73898C26.4632 10.2628 24.7304 10.98 23.0903 11.878L15.4763 5.72598L6.71426 14.488L12.8663 22.101C11.9708 23.7423 11.2537 25.4749 10.7273 27.269L0.989258 28.301V40.701L10.7273 41.735C11.2549 43.528 11.9719 45.2598 12.8663 46.901L6.71426 54.515L15.4763 63.277L23.0903 57.125C24.7277 58.0286 26.4612 58.746 28.2583 59.264L29.2923 69.001H41.6863L42.7203 59.263C44.5171 58.7443 46.2505 58.0268 47.8883 57.124L55.5023 63.276L64.2643 54.514L58.1233 46.914C59.0187 45.2726 59.7358 43.5401 60.2623 41.746L70.0003 40.712V28.315L60.2633 27.269ZM35.4873 48.891C32.6421 48.8912 29.8608 48.0476 27.495 46.4671C25.1292 44.8865 23.2853 42.6399 22.1964 40.0113C21.1076 37.3828 20.8226 34.4904 21.3776 31.6998C21.9326 28.9093 23.3027 26.3461 25.3145 24.3342C27.3264 22.3224 29.8896 20.9523 32.6801 20.3973C35.4706 19.8423 38.3631 20.1273 40.9916 21.2162C43.6202 22.305 45.8668 24.149 47.4474 26.5147C49.0279 28.8805 49.8715 31.6618 49.8713 34.507C49.8713 36.3959 49.4992 38.2663 48.7763 40.0115C48.0535 41.7566 46.994 43.3423 45.6583 44.678C44.3226 46.0137 42.7369 47.0732 40.9918 47.7961C39.2466 48.5189 37.3762 48.891 35.4873 48.891Z" fill="url(#paint0_linear_1_944)"/>
<defs>
<linearGradient id="paint0_linear_1_944" x1="70.0003" y1="3.24397" x2="0.99921" y2="65.9759" gradientUnits="userSpaceOnUse">
<stop stop-color="#AB1BE2"/>
<stop offset="1" stop-color="#7D319A"/>
</linearGradient>
</defs>
</svg>
