<svg width="134" height="124" viewBox="0 0 134 124" fill="none" xmlns="http://www.w3.org/2000/svg">
<g opacity="0.09">
<path d="M66.7671 79.3651C67.6009 79.3135 68.4311 79.5113 69.1521 79.9331C69.9993 80.5696 70.7559 81.3185 71.4011 82.159C72.6891 83.5451 73.9541 84.953 75.2551 86.327C77.2551 88.44 79.2641 90.5401 81.2551 92.6621C82.0551 93.5091 82.9221 94.3141 83.6551 95.2141C84.0829 95.72 84.3931 96.3147 84.5631 96.9551L84.5941 97.0791C84.742 97.6164 84.77 98.1797 84.6761 98.7291L84.6571 98.8211C84.5925 99.1722 84.4878 99.5148 84.3451 99.8421C83.8566 100.928 82.9626 101.78 81.8541 102.216L81.7381 102.256C80.9757 102.53 80.1479 102.565 79.3651 102.356L79.2401 102.32C78.6639 102.175 78.1234 101.914 77.6521 101.552C76.591 100.599 75.6119 99.5576 74.7251 98.4401C73.6021 97.1981 72.3941 95.9951 71.3491 94.6881C71.4691 95.9461 71.3711 97.2791 71.3671 98.5461C71.3591 100.973 71.3591 103.4 71.3671 105.827C71.3765 108.894 71.3795 111.963 71.3761 115.034C71.4466 116.572 71.4342 118.113 71.3391 119.649C71.2532 120.359 71.0089 121.04 70.6241 121.642C70.2698 122.19 69.8044 122.658 69.258 123.015C68.7117 123.372 68.0964 123.611 67.4521 123.715L66.8901 123.74C66.3075 123.743 65.7303 123.628 65.1936 123.401C64.6569 123.174 64.1719 122.84 63.7681 122.42C63.1149 121.763 62.6686 120.928 62.4841 120.02C62.3785 119.094 62.3515 118.161 62.4031 117.231C62.3991 115.706 62.3948 114.182 62.3901 112.658C62.3741 106.666 62.3511 100.665 62.4171 94.6731C62.0684 95.1439 61.6882 95.5906 61.2791 96.0101C60.6505 96.7061 60.0195 97.4001 59.3861 98.0921C58.7631 98.7731 58.1521 99.4631 57.5411 100.153C57.0242 100.817 56.4107 101.4 55.7211 101.883C54.6856 102.457 53.4723 102.622 52.3211 102.345C51.7709 102.215 51.253 101.974 50.799 101.637C50.3449 101.3 49.9642 100.874 49.6801 100.385C49.2339 99.5893 49.0337 98.679 49.1049 97.7694C49.1761 96.8598 49.5155 95.9917 50.0801 95.275C50.8141 94.347 51.7181 93.5041 52.5281 92.6361C54.4821 90.5411 56.4691 88.4811 58.4351 86.3981C59.6661 85.0981 60.9021 83.7981 62.1251 82.4841C62.7997 81.6607 63.543 80.8963 64.3471 80.1991C65.0629 79.706 65.8996 79.4177 66.7671 79.3651Z" fill="black"/>
<path fill-rule="evenodd" clip-rule="evenodd" d="M8.62243 0.0370792C7.00443 0.0120792 5.37743 -0.0119194 3.77743 0.0760806C3.18569 0.155071 2.61674 0.35579 2.10643 0.665589C1.59613 0.975387 1.15553 1.38754 0.812426 1.87608C0.339029 2.54308 0.0722911 3.3346 0.0454255 4.15208C-0.0225745 5.85208 -0.00157544 7.57608 0.0194246 9.29208C0.0294246 10.1151 0.039425 10.9381 0.039425 11.7561C0.039425 14.7621 0.039425 17.7681 0.039425 20.7741C0.039425 22.5941 0.039425 24.4144 0.039425 26.2351C0.0347583 36.5451 0.0347583 46.8554 0.039425 57.1661C0.039425 61.9774 0.039425 66.7887 0.039425 71.6001C0.039425 73.5748 0.039425 75.5494 0.039425 77.5241C0.039425 82.9101 0.0427586 88.2958 0.0494252 93.6811C0.0494252 94.3391 0.0520913 94.9974 0.0574247 95.6561C0.0624247 96.7631 0.0674254 97.8711 0.0664254 98.9791C0.0664254 99.2431 0.0574258 99.5211 0.0484258 99.8041C-0.00101512 100.534 0.0237782 101.266 0.122425 101.991C0.22733 102.564 0.44451 103.111 0.761482 103.6C1.07845 104.09 1.48897 104.511 1.96943 104.841C2.35908 105.107 2.79032 105.306 3.24542 105.43L3.36443 105.465C4.34397 105.665 5.34686 105.726 6.34343 105.646C6.66943 105.636 6.98743 105.627 7.28843 105.627C8.55043 105.627 9.81143 105.614 11.0734 105.601C12.3354 105.588 13.5964 105.574 14.8574 105.575C17.9701 105.575 21.0834 105.586 24.1974 105.609C30.6784 105.643 37.1604 105.678 43.6374 105.578L43.6454 97.1131L8.77642 97.0391L8.78642 82.3471C10.1164 81.0921 11.4684 79.8641 12.8204 78.6351C13.4538 78.0591 14.0871 77.4824 14.7204 76.9051C15.4698 76.2184 16.2181 75.5311 16.9654 74.8431C18.8134 73.1431 20.6654 71.4431 22.5284 69.7671C24.1844 68.2797 25.8338 66.7861 27.4764 65.2861C27.6964 65.0861 27.9214 64.8861 28.1494 64.6861C28.8822 64.0651 29.5703 63.393 30.2084 62.6751C32.2374 64.4751 34.2374 66.3171 36.2354 68.1561C36.9294 68.7954 37.6234 69.4337 38.3174 70.0711C38.9941 70.6917 39.6728 71.3108 40.3534 71.9281L40.6114 72.1631C40.7204 72.2631 40.8294 72.3631 40.9384 72.4631C41.3905 72.9195 41.8939 73.3222 42.4384 73.6631C43.1194 74.0319 43.8922 74.1968 44.6644 74.1381C45.451 74.1006 46.2114 73.8435 46.8594 73.3961C47.3015 73.0475 47.7154 72.6646 48.0974 72.2511C48.3404 72.0021 48.5824 71.7511 48.8324 71.5261C50.5518 69.9581 52.2791 68.3971 54.0144 66.8431C56.6858 64.4431 59.3634 62.0501 62.0474 59.6641C65.0074 57.0261 67.9631 54.3831 70.9144 51.7351L71.0764 51.5861C71.5635 51.1026 72.0866 50.657 72.6414 50.2531C72.8546 50.3892 73.0519 50.5489 73.2294 50.7291L73.3104 50.8031C74.6254 51.9571 75.9004 53.1591 77.1744 54.3601C77.6924 54.8481 78.2114 55.3354 78.7314 55.8221C79.6154 56.6454 80.5044 57.4637 81.3984 58.2771C82.3984 59.1931 83.3984 60.1081 84.3894 61.0351C85.4984 62.0731 86.6204 63.0841 87.7494 64.0991C87.8894 64.2251 88.0284 64.3591 88.1684 64.4931C88.513 64.8505 88.896 65.1687 89.3104 65.4421C90.0437 65.8716 90.8932 66.0605 91.7394 65.9821C92.4655 65.9298 93.1667 65.6956 93.7784 65.3011C94.5219 64.7949 95.2062 64.2069 95.8184 63.5481C96.1334 63.2341 96.4464 62.9221 96.7664 62.6371C97.2224 62.2301 97.6944 61.8371 98.1664 61.4371C98.9714 60.7581 99.7804 60.0771 100.515 59.3431L101.77 60.4331L125.022 82.1571L125.036 97.0651L90.1224 97.0471V105.631L90.2164 105.623C91.0594 105.564 91.9164 105.572 92.7694 105.58C93.0694 105.58 93.3694 105.586 93.6694 105.585C94.6734 105.585 95.6771 105.585 96.6804 105.585C97.7431 105.585 98.8058 105.585 99.8684 105.585C106.523 105.577 113.178 105.585 119.833 105.609C121.014 105.615 122.196 105.609 123.376 105.609C124.371 105.609 125.365 105.609 126.359 105.609C126.673 105.609 126.999 105.62 127.329 105.631C128.183 105.686 129.04 105.66 129.888 105.554C130.957 105.347 131.929 104.797 132.656 103.988C133.277 103.27 133.636 102.363 133.672 101.414C133.763 100.028 133.741 98.6041 133.719 97.1931C133.71 96.5931 133.7 95.9871 133.7 95.3931C133.7 91.5864 133.695 87.7801 133.685 83.9741C133.671 78.4341 133.671 72.8941 133.685 67.3541C133.693 62.3627 133.694 57.3717 133.69 52.3811C133.676 44.2644 133.674 36.1477 133.683 28.0311C133.683 25.3271 133.683 22.6231 133.683 19.9191C133.683 16.1244 133.675 12.3301 133.658 8.53608C133.658 7.98908 133.665 7.43608 133.676 6.88208C133.694 5.91908 133.712 4.95208 133.658 4.00508C133.582 2.86444 133.059 1.79994 132.202 1.04308C131.549 0.451127 130.716 0.0969978 129.836 0.0380786C128.411 -0.0349214 126.959 -0.00692024 125.513 0.0220798C124.743 0.0370798 123.976 0.0520785 123.213 0.0520785C119.179 0.0520785 115.146 0.0520785 111.113 0.0520785H108.813C100.024 0.0560785 91.2344 0.0560785 82.4444 0.0520785C76.9778 0.0520785 71.5111 0.0520785 66.0444 0.0520785C57.7418 0.0520785 49.4391 0.0520785 41.1364 0.0520785H24.2174C19.7354 0.0520785 15.2534 0.0504108 10.7714 0.0470775C10.0664 0.0590775 9.34643 0.0480792 8.62243 0.0370792ZM125.022 8.88108L25.1804 8.84008L8.73543 8.87508L8.75743 70.4081C9.50443 69.6251 10.3224 68.9081 11.1374 68.1881C11.3774 67.9767 11.6164 67.7651 11.8544 67.5531C12.4904 66.9851 13.1274 66.4184 13.7654 65.8531C14.9124 64.8331 16.0594 63.8141 17.1964 62.7841C17.9791 62.0754 18.7654 61.3701 19.5554 60.6681C20.7444 59.6061 21.9344 58.5441 23.1054 57.4681C23.5504 57.0581 23.9924 56.6381 24.4364 56.2161C25.4304 55.2711 26.4364 54.3161 27.4834 53.4681C27.8995 53.1278 28.3832 52.88 28.9024 52.7411L29.0234 52.7061C30.1202 52.4218 31.2843 52.5715 32.2734 53.1241C32.7395 53.4159 33.17 53.7609 33.5564 54.1521L33.7564 54.3361C34.2134 54.7581 34.6794 55.1721 35.1454 55.5851L35.3314 55.7501C37.5981 57.7641 39.8691 59.7764 42.1444 61.7871L42.7584 62.3291L43.5244 63.0061C43.5934 63.0671 43.6634 63.1331 43.7344 63.2011C43.913 63.3827 44.1108 63.5443 44.3244 63.6831C45.1334 62.9051 45.9874 62.1741 46.8414 61.4441C47.4114 60.9561 47.9814 60.4691 48.5414 59.9671C50.7074 58.0144 52.8794 56.0684 55.0574 54.1291C56.9721 52.4184 58.8851 50.7057 60.7964 48.9911C61.4858 48.3711 62.1741 47.7507 62.8614 47.1301C64.4221 45.7214 65.9868 44.3167 67.5554 42.9161C67.8244 42.6771 68.0944 42.4161 68.3684 42.1461C68.8979 41.5914 69.4796 41.0891 70.1054 40.6461C70.8995 40.1265 71.8417 39.8806 72.7884 39.9461C72.9581 39.9488 73.1273 39.9652 73.2944 39.9951L73.4124 40.0151C74.0649 40.1504 74.6778 40.4329 75.2044 40.8411C76.1006 41.5272 76.9538 42.2676 77.7594 43.0581C78.1594 43.4331 78.5534 43.8051 78.9544 44.1581C82.3544 47.1831 85.7014 50.3011 89.0314 53.4071L89.5314 53.8781L91.2384 55.4611C92.4464 54.5861 93.6194 53.6391 94.7504 52.6671C95.4574 52.0591 96.1504 51.4381 96.8504 50.8151L97.1134 50.5751C97.5931 50.0844 98.1469 49.6721 98.7544 49.3531C99.5759 49.0105 100.479 48.9143 101.354 49.0761C102.064 49.1852 102.736 49.4641 103.314 49.8891C103.99 50.4164 104.629 50.9891 105.227 51.6031C105.453 51.8251 105.678 52.0451 105.905 52.2601C107.329 53.6047 108.758 54.9457 110.192 56.2831C111.776 57.7584 113.352 59.2424 114.92 60.7351C116.412 62.1471 117.906 63.5551 119.403 64.9591C120.322 65.8161 121.254 66.6591 122.186 67.5021C123.118 68.3451 124.073 69.2091 125.002 70.0761L125.022 8.88108Z" fill="black"/>
<path fill-rule="evenodd" clip-rule="evenodd" d="M44.3125 16.6191C41.7426 14.3518 38.3819 13.19 34.9605 13.3861C34.2043 13.4194 33.4518 13.5104 32.7095 13.6581C29.9477 14.3235 27.4565 15.8198 25.5715 17.9451C23.2971 20.5479 22.1465 23.9458 22.3715 27.3951C22.4971 29.1449 22.9698 30.8521 23.762 32.4174C24.5541 33.9827 25.6499 35.3746 26.9855 36.5121C29.5331 38.7246 32.8398 39.8624 36.2095 39.6861C39.7507 39.546 43.092 38.008 45.5015 35.4091C46.6564 34.1035 47.5414 32.5821 48.1052 30.9326C48.669 29.2832 48.9006 27.5385 48.7865 25.7991C48.5672 22.268 46.9586 18.9674 44.3125 16.6191ZM38.1125 22.7451C37.2004 22.1686 36.1184 21.9216 35.0465 22.0451C34.4028 22.1338 33.7839 22.3528 33.2277 22.6888C32.6715 23.0247 32.1896 23.4706 31.8115 23.9991C31.1695 25.0052 30.9409 26.2204 31.1735 27.3911C31.2821 27.9672 31.5093 28.5144 31.8407 28.9979C32.1721 29.4815 32.6004 29.8909 33.0985 30.2001C34.0281 30.8337 35.1552 31.1104 36.2725 30.9791C36.9203 30.8815 37.5389 30.6436 38.0853 30.2821C38.6316 29.9206 39.0924 29.4441 39.4355 28.8861C39.7452 28.4015 39.9556 27.8603 40.0545 27.2938C40.1533 26.7274 40.1387 26.1469 40.0115 25.5861C39.7644 24.4316 39.085 23.4145 38.1125 22.7451Z" fill="black"/>
</g>
</svg>
