<svg width="104" height="104" viewBox="0 0 104 104" fill="none" xmlns="http://www.w3.org/2000/svg">
<path d="M83.531 26.003V20.803C83.5264 18.1198 82.485 15.5422 80.6244 13.6089C78.7638 11.6757 76.228 10.5363 73.547 10.429C73.4252 8.08111 72.7199 5.80066 71.495 3.79397C70.92 2.65284 70.0394 1.69379 68.9514 1.02369C67.8635 0.353589 66.6108 -0.0012331 65.333 -0.0012331C64.0552 -0.0012331 62.8025 0.353589 61.7145 1.02369C60.6265 1.69379 59.7459 2.65284 59.171 3.79397C58.8191 4.37291 58.7071 5.06633 58.8588 5.72661C59.0105 6.3869 59.414 6.96188 59.9833 7.32916C60.5526 7.69644 61.2427 7.827 61.9068 7.69305C62.5709 7.55909 63.1565 7.17121 63.539 6.61197C64.68 4.84697 65.981 4.83797 67.132 6.62197C67.2527 6.84888 67.3603 7.08261 67.454 7.32197C67.5289 7.41339 67.5958 7.51109 67.654 7.61397C68.1811 8.91048 68.4429 10.2995 68.424 11.699C68.5229 13.6834 67.9493 15.6431 66.796 17.261C66.4622 17.6855 66.0029 17.9939 65.4837 18.1422C64.9644 18.2906 64.4115 18.2713 63.9039 18.0871C63.3962 17.903 62.9596 17.5634 62.6561 17.1166C62.3527 16.6699 62.198 16.1388 62.214 15.599H62.731C63.4205 15.599 64.0818 15.325 64.5694 14.8374C65.057 14.3499 65.331 13.6885 65.331 12.999C65.331 12.3094 65.057 11.6481 64.5694 11.1605C64.0818 10.6729 63.4205 10.399 62.731 10.399H50.139C50.0151 8.06003 49.3116 5.78858 48.092 3.78897C47.4755 2.68212 46.5851 1.75209 45.5062 1.08796C44.4272 0.423821 43.1959 0.0478221 41.93 -0.00402832C40.6637 0.0464874 39.4318 0.421934 38.3527 1.08621C37.2735 1.75048 36.3834 2.68124 35.768 3.78897C35.5719 4.07566 35.4353 4.39872 35.3662 4.73907C35.2971 5.07943 35.2968 5.43019 35.3655 5.77064C35.4342 6.11109 35.5703 6.43433 35.766 6.72128C35.9616 7.00823 36.2128 7.25308 36.5047 7.44136C36.7965 7.62964 37.1231 7.75754 37.4652 7.81751C37.8073 7.87749 38.1579 7.86831 38.4964 7.79054C38.8349 7.71276 39.1544 7.56796 39.436 7.36468C39.7176 7.1614 39.9556 6.90376 40.136 6.60697C41.277 4.84197 42.578 4.83297 43.729 6.61697C43.8497 6.84388 43.9573 7.07761 44.051 7.31697C44.1259 7.40839 44.1928 7.50609 44.251 7.60897C44.7781 8.90548 45.0399 10.2945 45.021 11.694C45.1199 13.6784 44.5463 15.6381 43.393 17.256C43.0592 17.6805 42.5999 17.9889 42.0807 18.1372C41.5614 18.2856 41.0085 18.2663 40.5009 18.0821C39.9932 17.898 39.5566 17.5584 39.2531 17.1116C38.9497 16.6649 38.795 16.1338 38.811 15.594H39.328C40.0175 15.594 40.6788 15.32 41.1664 14.8324C41.654 14.3449 41.928 13.6835 41.928 12.994C41.928 12.3044 41.654 11.6431 41.1664 11.1555C40.6788 10.6679 40.0175 10.394 39.328 10.394H26.739C26.6151 8.05503 25.9116 5.78358 24.692 3.78397C24.0743 2.6788 23.1835 1.75057 22.1046 1.08806C21.0258 0.425544 19.795 0.0509054 18.53 -2.86102e-05C17.2637 0.0504871 16.0318 0.425934 14.9527 1.09021C13.8735 1.75448 12.9834 2.68524 12.368 3.79297C12.1719 4.07966 12.0353 4.40272 11.9662 4.74307C11.897 5.08343 11.8968 5.43419 11.9655 5.77464C12.0342 6.11509 12.1703 6.43833 12.366 6.72528C12.5616 7.01223 12.8128 7.25708 13.1046 7.44536C13.3965 7.63364 13.7231 7.76154 14.0652 7.82151C14.4073 7.88149 14.7579 7.87231 15.0964 7.79454C15.4349 7.71676 15.7544 7.57196 16.036 7.36868C16.3176 7.1654 16.5556 6.90776 16.736 6.61097C17.877 4.84597 19.178 4.83697 20.329 6.62097C20.4515 6.85014 20.5607 7.0862 20.656 7.32797C20.7282 7.42001 20.7949 7.51618 20.856 7.61597C21.3831 8.91248 21.6449 10.3015 21.626 11.701C21.7252 13.6848 21.1523 15.6441 20 17.262C19.6662 17.6865 19.2069 17.9949 18.6877 18.1432C18.1684 18.2916 17.6155 18.2723 17.1079 18.0881C16.6002 17.904 16.1636 17.5644 15.8601 17.1176C15.5567 16.6709 15.402 16.1398 15.418 15.6H15.935C16.6245 15.6 17.2858 15.326 17.7734 14.8384C18.261 14.3509 18.535 13.6895 18.535 13C18.535 12.3104 18.261 11.6491 17.7734 11.1615C17.2858 10.6739 16.6245 10.4 15.935 10.4H10.735C7.97736 10.4021 5.33331 11.4985 3.38339 13.4484C1.43347 15.3983 0.33708 18.0424 0.334961 20.8V26L83.531 26.003Z" fill="url(#paint0_linear_2_45)"/>
<path d="M69.3111 101.397H66.8831C64.7188 101.397 62.5984 100.786 60.766 99.6347C58.9335 98.4831 57.4634 96.8375 56.5249 94.8873C55.5864 92.9371 55.2175 90.7616 55.4608 88.611C55.7041 86.4604 56.5496 84.4222 57.9001 82.731L60.1281 79.943V77.598C60.135 76.8629 60.179 76.1286 60.2601 75.398H18.5301C17.8405 75.398 17.1792 75.1241 16.6916 74.6365C16.204 74.1489 15.9301 73.4875 15.9301 72.798C15.9301 72.1084 16.204 71.4471 16.6916 70.9595C17.1792 70.4719 17.8405 70.198 18.5301 70.198H61.4481C62.6246 66.9528 64.5601 64.036 67.0931 61.691C66.6183 62.1429 65.9885 62.3958 65.3331 62.398H18.5331C17.8435 62.398 17.1822 62.1241 16.6946 61.6365C16.207 61.1489 15.9331 60.4875 15.9331 59.798C15.9331 59.1084 16.207 58.4471 16.6946 57.9595C17.1822 57.4719 17.8435 57.198 18.5331 57.198H65.3331C66.0226 57.198 66.6839 57.4719 67.1715 57.9595C67.6591 58.4471 67.9331 59.1084 67.9331 59.798C67.9295 60.4502 67.6765 61.0763 67.2261 61.548C67.8835 60.9467 68.579 60.3882 69.3081 59.876C69.2552 59.4165 69.2292 58.9544 69.2301 58.492C69.2346 55.0455 70.6056 51.7416 73.0426 49.3046C75.4796 46.8676 78.7836 45.4965 82.2301 45.492C82.6654 45.5138 83.0993 45.5579 83.5301 45.624V31.204H0.331055V93.604C0.333173 96.3616 1.42956 99.0056 3.37948 100.956C5.3294 102.905 7.97345 104.002 10.7311 104.004H71.0951C70.4062 103.206 69.8078 102.334 69.3111 101.404V101.397ZM18.5341 44.197H65.3341C66.0236 44.197 66.6849 44.4709 67.1725 44.9585C67.6601 45.4461 67.9341 46.1074 67.9341 46.797C67.9341 47.4865 67.6601 48.1479 67.1725 48.6355C66.6849 49.1231 66.0236 49.397 65.3341 49.397H18.5341C17.8445 49.397 17.1832 49.1231 16.6956 48.6355C16.208 48.1479 15.9341 47.4865 15.9341 46.797C15.9341 46.1074 16.208 45.4461 16.6956 44.9585C17.1832 44.4709 17.8445 44.197 18.5341 44.197ZM52.3341 88.397H18.5341C17.8445 88.397 17.1832 88.1231 16.6956 87.6355C16.208 87.1479 15.9341 86.4865 15.9341 85.797C15.9341 85.1074 16.208 84.4461 16.6956 83.9585C17.1832 83.4709 17.8445 83.197 18.5341 83.197H52.3341C53.0236 83.197 53.6849 83.4709 54.1725 83.9585C54.6601 84.4461 54.9341 85.1074 54.9341 85.797C54.9341 86.4865 54.6601 87.1479 54.1725 87.6355C53.6849 88.1231 53.0236 88.397 52.3341 88.397Z" fill="url(#paint1_linear_2_45)"/>
<path d="M102.494 85.979L99.6371 82.406C99.3054 81.9924 99.1248 81.4781 99.1251 80.948V77.599C99.1212 74.34 98.1539 71.155 96.3447 68.4444C94.5355 65.7338 91.9652 63.6186 88.9571 62.365C89.6478 61.1912 90.0162 59.8559 90.0251 58.494C90.0355 57.2928 89.7685 56.1055 89.2446 55.0245C88.7208 53.9435 87.9544 52.9981 87.0052 52.262C86.0559 51.5259 84.9495 51.019 83.7722 50.7808C82.5948 50.5426 81.3784 50.5795 80.2176 50.8887C79.0569 51.1979 77.9833 51.771 77.0804 52.5634C76.1776 53.3557 75.4699 54.3458 75.0127 55.4566C74.5554 56.5673 74.3608 57.7687 74.4442 58.967C74.5275 60.1653 74.8864 61.3282 75.4931 62.365C72.4853 63.6193 69.9153 65.7345 68.106 68.445C66.2967 71.1554 65.3289 74.3401 65.3241 77.599V80.948C65.3237 81.4756 65.145 81.9877 64.8171 82.401L61.9601 85.974C61.2197 86.9 60.7559 88.0163 60.6222 89.1943C60.4885 90.3723 60.6903 91.5642 61.2043 92.6325C61.7184 93.7009 62.5238 94.6023 63.5278 95.2329C64.5318 95.8636 65.6935 96.1977 66.8791 96.197H72.9701C73.3476 98.3798 74.4839 100.359 76.1786 101.786C77.8732 103.213 80.0173 103.995 82.2326 103.995C84.4478 103.995 86.5919 103.213 88.2866 101.786C89.9812 100.359 91.1175 98.3798 91.4951 96.197H97.5841C98.7697 96.1977 99.9314 95.8636 100.935 95.2329C101.939 94.6023 102.745 93.7009 103.259 92.6325C103.773 91.5642 103.975 90.3723 103.841 89.1943C103.707 88.0163 103.243 86.9 102.503 85.974L102.494 85.979ZM82.2301 55.897C82.7443 55.897 83.247 56.0495 83.6745 56.3352C84.1021 56.6208 84.4354 57.0269 84.6322 57.502C84.8289 57.9771 84.8804 58.4999 84.7801 59.0042C84.6798 59.5086 84.4322 59.9718 84.0685 60.3355C83.7049 60.6991 83.2416 60.9467 82.7373 61.047C82.2329 61.1473 81.7102 61.0958 81.2351 60.8991C80.76 60.7023 80.3539 60.369 80.0682 59.9415C79.7826 59.5139 79.6301 59.0112 79.6301 58.497C79.6301 57.8074 79.904 57.1461 80.3916 56.6585C80.8792 56.1709 81.5405 55.897 82.2301 55.897ZM82.2301 98.797C81.3957 98.798 80.5798 98.5516 79.8856 98.0887C79.1913 97.6259 78.65 96.9676 78.3301 96.197H86.1301C85.8096 96.9672 85.2681 97.6252 84.574 98.0879C83.8799 98.5506 83.0643 98.7974 82.2301 98.797Z" fill="url(#paint2_linear_2_45)"/>
<defs>
<linearGradient id="paint0_linear_2_45" x1="83.531" y1="1.2183" x2="67.4625" y2="47.9434" gradientUnits="userSpaceOnUse">
<stop stop-color="#AB1BE2"/>
<stop offset="1" stop-color="#7D319A"/>
</linearGradient>
<linearGradient id="paint1_linear_2_45" x1="83.53" y1="34.6256" x2="10.4515" y2="110.543" gradientUnits="userSpaceOnUse">
<stop stop-color="#AB1BE2"/>
<stop offset="1" stop-color="#7D319A"/>
</linearGradient>
<linearGradient id="paint2_linear_2_45" x1="103.881" y1="53.1343" x2="52.662" y2="90.9075" gradientUnits="userSpaceOnUse">
<stop stop-color="#AB1BE2"/>
<stop offset="1" stop-color="#7D319A"/>
</linearGradient>
</defs>
</svg>
