<svg width="74" height="61" viewBox="0 0 74 61" fill="none" xmlns="http://www.w3.org/2000/svg">
<path d="M72.062 56.664H2.56398C2.04999 56.664 1.55705 56.8682 1.1936 57.2317C0.830158 57.5951 0.625977 58.088 0.625977 58.602C0.625977 59.116 0.830158 59.609 1.1936 59.9724C1.55705 60.3358 2.04999 60.54 2.56398 60.54H72.064C72.578 60.54 73.0709 60.3358 73.4343 59.9724C73.7978 59.609 74.002 59.116 74.002 58.602C74.002 58.088 73.7978 57.5951 73.4343 57.2317C73.0709 56.8682 72.578 56.664 72.064 56.664H72.062ZM60.324 13.493L58.883 14.908L47.532 3.56103L48.973 2.12003C55.805 -4.73497 67.2 6.63803 60.324 13.493ZM55.805 17.993L27.537 46.258L14.637 48.938C14.486 48.9689 14.3296 48.9619 14.182 48.9176C14.0344 48.8733 13.9 48.793 13.791 48.684C13.682 48.575 13.6017 48.4407 13.5574 48.293C13.5131 48.1454 13.5061 47.989 13.537 47.838L16.186 34.908L44.456 6.63803L55.805 17.993Z" fill="#888888"/>
</svg>
