<svg width="57" height="64" viewBox="0 0 57 64" fill="none" xmlns="http://www.w3.org/2000/svg">
<path d="M6.9437 52.1561C6.9437 52.1561 2.4827 58.576 4.0557 59.065C5.6287 59.554 10.6467 54.978 10.6467 54.978L6.9437 52.1561Z" fill="#8A86F8"/>
<g opacity="0.3">
<mask id="mask0_2_58" style="mask-type:luminance" maskUnits="userSpaceOnUse" x="6" y="52" width="5" height="5">
<path d="M10.6473 52.1561H6.02832V56.3801H10.6473V52.1561Z" fill="white"/>
</mask>
<g mask="url(#mask0_2_58)">
<path d="M6.02832 53.5481C6.02832 53.5481 7.69932 56.0171 9.00132 56.3801L10.6473 54.9801L6.94732 52.158L6.02832 53.5481Z" fill="black"/>
</g>
</g>
<path d="M37.3457 56.411C37.3457 56.411 39.6977 63.867 38.0507 63.866C36.4037 63.865 32.9717 58.005 32.9717 58.005L37.3457 56.411Z" fill="#8B88F8"/>
<g opacity="0.3">
<mask id="mask1_2_58" style="mask-type:luminance" maskUnits="userSpaceOnUse" x="32" y="56" width="6" height="4">
<path d="M37.8067 56.411H32.9717V59.834H37.8067V56.411Z" fill="white"/>
</mask>
<g mask="url(#mask1_2_58)">
<path d="M37.8067 58.0131C37.8067 58.0131 35.4777 59.874 34.1267 59.834L32.9717 58.006L37.3457 56.412L37.8067 58.0131Z" fill="black"/>
</g>
</g>
<path d="M15.4445 14.079L14.3225 14.556L8.73253 1.40504C8.69772 1.33082 8.67822 1.25034 8.67522 1.16841C8.67221 1.08648 8.68575 1.00479 8.71503 0.928207C8.7443 0.85163 8.7887 0.781738 8.84559 0.72271C8.90249 0.663681 8.97069 0.616731 9.04614 0.584656C9.12159 0.552581 9.20273 0.536038 9.28471 0.536026C9.36669 0.536014 9.44784 0.552534 9.5233 0.584587C9.59876 0.61664 9.66698 0.663568 9.72389 0.72258C9.7808 0.781591 9.82522 0.851471 9.85452 0.92804L15.4445 14.079Z" fill="#263238"/>
<g opacity="0.3">
<mask id="mask2_2_58" style="mask-type:luminance" maskUnits="userSpaceOnUse" x="8" y="0" width="8" height="15">
<path d="M15.4456 0.557045H8.68457V14.556H15.4456V0.557045Z" fill="white"/>
</mask>
<g mask="url(#mask2_2_58)">
<path d="M15.4455 14.079L14.3235 14.556L8.7335 1.40505C8.69869 1.33082 8.6792 1.25034 8.67619 1.16842C8.67318 1.08649 8.68673 1.00479 8.716 0.928211C8.74528 0.851634 8.78968 0.781742 8.84657 0.722713C8.90346 0.663685 8.97167 0.616735 9.04712 0.58466C9.12257 0.552584 9.20371 0.536042 9.28569 0.53603C9.36767 0.536018 9.44882 0.552538 9.52428 0.584591C9.59973 0.616644 9.66796 0.663572 9.72487 0.722584C9.78178 0.781595 9.8262 0.851474 9.8555 0.928043L15.4455 14.079Z" fill="white"/>
</g>
</g>
<path d="M2.38012 16.621C2.38012 16.621 -1.25088 7.57505 5.86712 3.89605C12.4261 0.505052 13.7981 0.465052 13.7981 0.465052C13.7981 0.465052 22.5161 -2.45095 25.2851 6.33605L2.38012 16.621Z" fill="#E85A92"/>
<g opacity="0.3">
<mask id="mask3_2_58" style="mask-type:luminance" maskUnits="userSpaceOnUse" x="13" y="11" width="2" height="2">
<path d="M14.4215 11.287H13.1465V12.21H14.4215V11.287Z" fill="white"/>
</mask>
<g mask="url(#mask3_2_58)">
<path d="M13.1465 11.787L13.3265 12.21L14.4265 11.669L14.2645 11.287L13.1465 11.787Z" fill="black"/>
</g>
</g>
<g opacity="0.3">
<mask id="mask4_2_58" style="mask-type:luminance" maskUnits="userSpaceOnUse" x="3" y="2" width="7" height="14">
<path d="M9.05474 2.31004H3.38574V15.664H9.05474V2.31004Z" fill="white"/>
</mask>
<g mask="url(#mask4_2_58)">
<path d="M9.05571 2.31005C6.12571 3.61005 4.66371 5.17805 3.77871 7.35005C2.89371 9.52205 3.66371 13.477 4.51171 15.664L8.19171 14.012C8.19171 14.012 5.00571 10.328 6.01471 7.18804C6.59925 5.33119 7.6456 3.65212 9.05571 2.31005Z" fill="white"/>
</g>
</g>
<path d="M42.6379 19.744L41.752 18.906L51.571 8.52405C51.6253 8.46327 51.6913 8.414 51.765 8.37916C51.8387 8.34432 51.9187 8.32461 52.0002 8.3212C52.0816 8.3178 52.1629 8.33076 52.2393 8.35932C52.3157 8.38788 52.3856 8.43147 52.4448 8.4875C52.5041 8.54353 52.5515 8.61087 52.5842 8.68554C52.617 8.7602 52.6345 8.84068 52.6356 8.92221C52.6367 9.00374 52.6215 9.08468 52.5908 9.16022C52.5601 9.23577 52.5146 9.30439 52.4569 9.36204L42.6379 19.744Z" fill="#263238"/>
<g opacity="0.3">
<mask id="mask5_2_58" style="mask-type:luminance" maskUnits="userSpaceOnUse" x="41" y="8" width="12" height="12">
<path d="M52.624 8.33405H41.752V19.745H52.624V8.33405Z" fill="white"/>
</mask>
<g mask="url(#mask5_2_58)">
<path d="M42.6379 19.744L41.752 18.906L51.571 8.52404C51.6253 8.46326 51.6913 8.41399 51.765 8.37915C51.8387 8.34432 51.9187 8.32461 52.0002 8.3212C52.0816 8.31779 52.1629 8.33076 52.2393 8.35932C52.3157 8.38788 52.3856 8.43147 52.4448 8.4875C52.5041 8.54353 52.5515 8.61087 52.5842 8.68554C52.617 8.7602 52.6345 8.84068 52.6356 8.92221C52.6367 9.00374 52.6215 9.08468 52.5908 9.16022C52.5601 9.23577 52.5146 9.30439 52.4569 9.36204L42.6379 19.744Z" fill="white"/>
</g>
</g>
<path d="M35.085 8.78404C35.085 8.78404 41.925 1.84004 48.143 6.89204C53.874 11.548 54.459 12.792 54.459 12.792C54.459 12.792 60.618 19.616 53.67 25.668L35.085 8.78404Z" fill="#E85A92"/>
<g opacity="0.3">
<mask id="mask6_2_58" style="mask-type:luminance" maskUnits="userSpaceOnUse" x="43" y="16" width="2" height="2">
<path d="M44.7239 16.72H43.5049V17.841H44.7239V16.72Z" fill="white"/>
</mask>
<g mask="url(#mask6_2_58)">
<path d="M43.8209 16.72L43.5049 17.054L44.4389 17.8421L44.7239 17.542L43.8209 16.72Z" fill="black"/>
</g>
</g>
<g opacity="0.3">
<mask id="mask7_2_58" style="mask-type:luminance" maskUnits="userSpaceOnUse" x="36" y="6" width="15" height="8">
<path d="M50.8715 6.35604H36.8145V13.067H50.8715V6.35604Z" fill="white"/>
</mask>
<g mask="url(#mask7_2_58)">
<path d="M50.8714 9.18104C48.5074 7.01504 46.4874 6.30204 44.1424 6.36004C41.7974 6.41804 38.4804 8.70404 36.8154 10.36L39.8014 13.072C39.8014 13.072 41.9014 8.67904 45.1854 8.34804C47.1215 8.14145 49.0783 8.42979 50.8724 9.18604" fill="white"/>
</g>
</g>
<path d="M32.0888 5.40405L28.3148 4.83005L28.0908 6.30405L29.0908 6.45605L28.4578 10.619L30.2258 10.888L30.8588 6.72504L31.8588 6.87704L32.0888 5.40405Z" fill="#263238"/>
<mask id="mask8_2_58" style="mask-type:luminance" maskUnits="userSpaceOnUse" x="28" y="4" width="5" height="7">
<path d="M32.0888 4.83005H28.0908V10.888H32.0888V4.83005Z" fill="white"/>
</mask>
<g mask="url(#mask8_2_58)">
<path d="M32.0888 5.40305L28.3148 4.82905L28.0908 6.30305L29.0908 6.45505L28.4578 10.618L30.2258 10.887L30.8588 6.72404L31.8588 6.87605L32.0888 5.40305Z" fill="#8F8CF9"/>
</g>
<g opacity="0.3">
<mask id="mask9_2_58" style="mask-type:luminance" maskUnits="userSpaceOnUse" x="29" y="6" width="2" height="2">
<path d="M30.8614 6.45705H29.0234V7.19305H30.8614V6.45705Z" fill="white"/>
</mask>
<g mask="url(#mask9_2_58)">
<path d="M29.0944 6.45741L29.0234 6.92405L30.7911 7.1928L30.8621 6.72617L29.0944 6.45741Z" fill="black"/>
</g>
</g>
<path d="M49.9375 39.102C49.1909 44.0118 47.0052 48.5899 43.6568 52.2574C40.3083 55.925 35.9475 58.5173 31.1258 59.7065C26.3041 60.8957 21.2381 60.6284 16.5683 58.9385C11.8985 57.2485 7.83464 54.2118 4.89067 50.2123C1.9467 46.2128 0.2548 41.4301 0.028923 36.4691C-0.196954 31.5081 1.05333 26.5914 3.62168 22.341C6.19003 18.0905 9.96109 14.697 14.458 12.5897C18.9549 10.4824 23.9757 9.75591 28.8856 10.502C32.1458 10.9975 35.2766 12.1303 38.099 13.8358C40.9215 15.5412 43.3803 17.7859 45.3352 20.4417C47.2901 23.0975 48.7027 26.1124 49.4924 29.3141C50.2821 32.5159 50.4333 35.8418 49.9375 39.102Z" fill="#8F8CF9"/>
<g opacity="0.8">
<mask id="mask10_2_58" style="mask-type:luminance" maskUnits="userSpaceOnUse" x="2" y="13" width="46" height="45">
<path d="M47.3737 13.184H2.96875V57.589H47.3737V13.184Z" fill="white"/>
</mask>
<g mask="url(#mask10_2_58)">
<path d="M47.1188 38.722C46.4591 43.063 44.5271 47.1109 41.5669 50.3538C38.6067 53.5966 34.7514 55.8889 30.4884 56.9406C26.2255 57.9924 21.7463 57.7564 17.6175 56.2625C13.4887 54.7686 9.89555 52.0839 7.29254 48.5479C4.68952 45.0119 3.19352 40.7834 2.99371 36.3972C2.7939 32.011 3.89927 27.664 6.17002 23.906C8.44077 20.1479 11.7749 17.1477 15.7508 15.2846C19.7267 13.4215 24.1658 12.7792 28.5068 13.439C34.3275 14.3238 39.5585 17.4845 43.0489 22.226C46.5393 26.9674 48.0033 32.9012 47.1188 38.722Z" fill="white"/>
</g>
</g>
<g opacity="0.3">
<mask id="mask11_2_58" style="mask-type:luminance" maskUnits="userSpaceOnUse" x="8" y="14" width="33" height="42">
<path d="M40.4178 14.941H8.71582V55.618H40.4178V14.941Z" fill="white"/>
</mask>
<g mask="url(#mask11_2_58)">
<path d="M8.71582 50.2951C10.7827 52.5577 13.294 54.3698 16.0928 55.6181C18.1757 52.5697 20.6742 49.8272 23.5158 47.4701C26.9828 44.4441 30.6918 41.675 33.8628 38.341C34.5688 37.6668 35.1468 36.8703 35.5688 35.99C35.7759 35.5479 35.8772 35.0637 35.8649 34.5757C35.8525 34.0876 35.7269 33.6092 35.4978 33.178C34.8178 32.06 33.3878 31.708 32.1038 31.455L27.2278 30.4931C26.1118 30.2721 24.7378 29.7761 24.6708 28.6401C24.6138 27.6821 25.5618 27.006 26.3978 26.535C30.9858 23.9477 35.6588 21.5197 40.4168 19.251C39.9262 18.7844 39.4148 18.3407 38.8828 17.9201L36.5238 16.288C35.6813 15.7821 34.806 15.3328 33.9038 14.943C29.6261 18.1114 25.8874 21.949 22.8318 26.3081C22.0395 27.3351 21.4698 28.5158 21.1588 29.775C21.0113 30.4064 21.0326 31.0655 21.2206 31.6861C21.4086 32.3066 21.7567 32.8667 22.2298 33.3101C23.1877 33.9025 24.2667 34.2717 25.3868 34.3901C25.9458 34.4552 26.4778 34.6662 26.9296 35.0018C27.3813 35.3373 27.737 35.7857 27.9608 36.302C28.0259 36.8207 27.9683 37.3475 27.7927 37.8399C27.6171 38.3322 27.3284 38.7765 26.9498 39.137C22.3638 44.65 14.6368 46.2811 8.71582 50.2971" fill="white"/>
</g>
</g>
<g opacity="0.3">
<mask id="mask12_2_58" style="mask-type:luminance" maskUnits="userSpaceOnUse" x="11" y="35" width="14" height="8">
<path d="M24.477 35.233H11.042V42.156H24.477V35.233Z" fill="white"/>
</mask>
<g mask="url(#mask12_2_58)">
<path d="M24.477 35.233L17.354 37.9931L11.042 42.156L18.657 39.697L24.477 35.233Z" fill="black"/>
</g>
</g>
<path d="M25.4909 34.944L16.9839 37.372L10.6719 41.535L18.2869 39.076L25.4909 34.944Z" fill="#263238"/>
<g opacity="0.3">
<mask id="mask13_2_58" style="mask-type:luminance" maskUnits="userSpaceOnUse" x="25" y="23" width="7" height="13">
<path d="M31.6413 23.995H25.4453V35.856H31.6413V23.995Z" fill="white"/>
</mask>
<g mask="url(#mask13_2_58)">
<path d="M25.4424 35.856L29.4854 29.862L31.6394 23.996L27.5874 29.115L25.4424 35.856Z" fill="black"/>
</g>
</g>
<path d="M25.1035 35.393L29.1465 29.399L31.3005 23.533L27.2485 28.652L25.1035 35.393Z" fill="#263238"/>
<path d="M27.0925 15.236L26.6865 17.911L26.3085 17.854L26.6645 15.512L26.0645 15.42L26.1145 15.0871L27.0925 15.236Z" fill="#263238"/>
<path d="M29.1966 17.953L29.1466 18.286L27.2246 17.994L27.2636 17.734L28.5126 16.849C28.8376 16.617 28.9126 16.457 28.9416 16.289C28.9836 16.014 28.8136 15.816 28.4416 15.759C28.3141 15.7323 28.182 15.7353 28.0558 15.7677C27.9296 15.8001 27.8125 15.8611 27.7136 15.946L27.4876 15.681C27.6311 15.5639 27.7989 15.4801 27.9788 15.4358C28.1586 15.3915 28.3461 15.3878 28.5276 15.425C29.0856 15.51 29.4016 15.851 29.3276 16.31C29.2977 16.4735 29.2312 16.6281 29.1329 16.7621C29.0347 16.8962 28.9075 17.0062 28.7606 17.084L27.8236 17.747L29.1966 17.953Z" fill="#263238"/>
<path d="M37.6608 19.58L37.2548 22.255L36.8768 22.198L37.2328 19.856L36.6328 19.764L36.6828 19.431L37.6608 19.58Z" fill="#263238"/>
<path d="M43.4203 30.051L43.3702 30.384L41.4482 30.092L41.4872 29.832L42.7363 28.947C43.0613 28.715 43.1363 28.555 43.1653 28.387C43.2073 28.112 43.0373 27.914 42.6653 27.857C42.5377 27.8303 42.4057 27.8333 42.2794 27.8657C42.1532 27.8981 42.0361 27.9591 41.9373 28.044L41.7112 27.779C41.8547 27.6618 42.0225 27.5781 42.2024 27.5338C42.3823 27.4895 42.5698 27.4858 42.7513 27.523C43.3093 27.608 43.6252 27.949 43.5512 28.408C43.5213 28.5715 43.4548 28.726 43.3566 28.8601C43.2584 28.9942 43.1311 29.1042 42.9843 29.182L42.0472 29.845L43.4203 30.051Z" fill="#263238"/>
<path d="M44.1794 38.618C44.1114 39.069 43.7224 39.385 43.0424 39.282C42.6855 39.2382 42.3553 39.0705 42.1094 38.808L42.3314 38.5331C42.5271 38.7582 42.7986 38.9037 43.0944 38.942C43.4944 39.003 43.7524 38.855 43.7944 38.564C43.8364 38.273 43.6624 38.064 43.2044 37.998L42.9904 37.965L43.0314 37.6971L43.8314 36.974L42.5434 36.774L42.5934 36.4411L44.3594 36.709L44.3204 36.9691L43.4894 37.726C43.594 37.7364 43.6954 37.7679 43.7874 37.8187C43.8795 37.8695 43.9602 37.9385 44.0248 38.0214C44.0893 38.1044 44.1363 38.1996 44.1629 38.3013C44.1895 38.4031 44.1951 38.5091 44.1794 38.6131" fill="#263238"/>
<path d="M41.1248 47.927L40.6168 47.8501L40.5168 48.507L40.1458 48.451L40.2458 47.7941L38.7588 47.568L38.7998 47.3L40.4338 45.758L40.8468 45.8211L39.2788 47.3111L40.3068 47.4671L40.3948 46.8861L40.7538 46.9411L40.6658 47.522L41.1738 47.599L41.1248 47.927Z" fill="#263238"/>
<path d="M33.0447 53.081C32.9747 53.543 32.5897 53.8641 31.9057 53.7601C31.5491 53.7152 31.2192 53.5476 30.9727 53.2861L31.1947 53.0111C31.3892 53.2356 31.6592 53.3811 31.9537 53.4201C32.3587 53.4811 32.6167 53.329 32.6607 53.039C32.7047 52.749 32.5437 52.521 31.9247 52.427L31.3177 52.335L31.6717 50.9581L33.1807 51.1871L33.1307 51.52L31.9427 51.339L31.7587 52.0621L32.0587 52.107C32.8587 52.228 33.1197 52.607 33.0477 53.082" fill="#263238"/>
<path d="M23.3964 54.6301C23.3759 54.7488 23.3311 54.8621 23.2649 54.9628C23.1986 55.0634 23.1122 55.1493 23.0112 55.215C22.9102 55.2807 22.7967 55.3249 22.6778 55.3447C22.5589 55.3645 22.4372 55.3595 22.3204 55.3301C21.6024 55.2211 21.2704 54.6781 21.3994 53.8301C21.4018 53.6481 21.444 53.4688 21.523 53.3049C21.602 53.1409 21.7159 52.9963 21.8567 52.881C21.9975 52.7657 22.1618 52.6826 22.3381 52.6375C22.5144 52.5925 22.6985 52.5865 22.8774 52.62C23.1104 52.6466 23.3319 52.7358 23.5184 52.878L23.3284 53.154C23.1868 53.0412 23.0155 52.9718 22.8354 52.9541C22.2924 52.8711 21.8934 53.154 21.7914 53.827C21.7858 53.8601 21.7821 53.8935 21.7804 53.9271C21.8872 53.8228 22.0182 53.7467 22.1617 53.7057C22.3052 53.6647 22.4566 53.66 22.6024 53.6921C22.7189 53.6968 22.8331 53.7259 22.9377 53.7774C23.0423 53.8289 23.1349 53.9018 23.2097 53.9912C23.2845 54.0807 23.3397 54.1848 23.3719 54.2969C23.404 54.409 23.4124 54.5266 23.3964 54.6421M23.0234 54.6011C23.0714 54.2871 22.8644 54.0491 22.4904 53.9921C22.4168 53.9723 22.3399 53.9678 22.2645 53.9788C22.1891 53.9898 22.1167 54.016 22.0518 54.0559C21.9868 54.0957 21.9307 54.1484 21.8868 54.2107C21.8429 54.2729 21.8121 54.3435 21.7964 54.4181C21.7544 54.6931 21.9394 54.9671 22.3524 55.0301C22.4248 55.05 22.5007 55.0544 22.575 55.0431C22.6493 55.0319 22.7204 55.0051 22.7836 54.9645C22.8469 54.924 22.901 54.8706 22.9423 54.8078C22.9836 54.745 23.0112 54.6742 23.0234 54.6001" fill="#263238"/>
<path d="M15.2953 48.4671L15.2563 48.727L13.8073 50.978L13.4023 50.916L14.8173 48.7341L13.5953 48.548L13.5223 49.026L13.1553 48.97L13.2783 48.16L15.2953 48.4671Z" fill="#263238"/>
<path d="M9.41875 43.004C9.34475 43.489 8.88676 43.729 8.23276 43.629C7.57876 43.529 7.21975 43.166 7.29375 42.681C7.31328 42.5367 7.37927 42.4026 7.48174 42.299C7.58421 42.1955 7.7176 42.1281 7.86175 42.107C7.75518 42.043 7.67064 41.9481 7.61937 41.8348C7.5681 41.7215 7.55254 41.5954 7.57476 41.473C7.64276 41.026 8.07476 40.806 8.64776 40.893C9.22076 40.98 9.57576 41.32 9.50776 41.767C9.49196 41.8907 9.43894 42.0067 9.35571 42.0996C9.27249 42.1924 9.16299 42.2578 9.04175 42.287C9.17392 42.3496 9.28212 42.4535 9.34996 42.5831C9.4178 42.7126 9.4416 42.8607 9.41775 43.005M9.03776 42.936C9.08276 42.642 8.85076 42.419 8.42676 42.354C8.00276 42.289 7.72676 42.435 7.67776 42.729C7.62876 43.023 7.85575 43.256 8.27775 43.321C8.69975 43.386 8.98976 43.238 9.03576 42.936M7.94876 41.547C7.90876 41.811 8.10176 42.008 8.46876 42.064C8.83576 42.12 9.08976 41.99 9.12976 41.727C9.16976 41.464 8.95875 41.259 8.59875 41.205C8.23875 41.151 7.98876 41.279 7.94876 41.547Z" fill="#263238"/>
<path d="M8.12193 32.314C8.1195 32.496 8.07732 32.6753 7.99832 32.8392C7.91932 33.0031 7.80542 33.1478 7.6646 33.2631C7.52379 33.3784 7.35947 33.4615 7.18315 33.5066C7.00684 33.5516 6.82279 33.5576 6.64393 33.524C6.4109 33.4974 6.18941 33.4083 6.00293 33.266L6.19293 32.99C6.33685 33.1035 6.51048 33.1729 6.69293 33.19C7.23593 33.273 7.63093 32.985 7.73293 32.316L7.74792 32.216C7.64073 32.3206 7.50915 32.3968 7.36509 32.4376C7.22103 32.4785 7.06905 32.4827 6.92293 32.45C6.80671 32.4452 6.69279 32.416 6.58852 32.3645C6.48424 32.3129 6.39193 32.2401 6.3175 32.1507C6.24308 32.0613 6.18821 31.9573 6.15642 31.8454C6.12463 31.7335 6.11663 31.6162 6.13293 31.501C6.15303 31.3825 6.19742 31.2694 6.26333 31.1688C6.32923 31.0683 6.41523 30.9824 6.5159 30.9167C6.61657 30.8509 6.72975 30.8067 6.84833 30.7868C6.9669 30.7669 7.08831 30.7718 7.20493 30.801C7.92393 30.91 8.25493 31.453 8.12593 32.301M7.73293 31.721C7.77493 31.446 7.58993 31.171 7.17293 31.108C7.10071 31.0881 7.02509 31.0837 6.95103 31.095C6.87698 31.1063 6.80615 31.1332 6.74318 31.1737C6.68021 31.2143 6.62653 31.2678 6.58565 31.3305C6.54476 31.3933 6.51759 31.464 6.50593 31.538C6.45793 31.852 6.66093 32.089 7.03493 32.146C7.10892 32.1664 7.1863 32.1714 7.2623 32.1607C7.3383 32.1501 7.41132 32.124 7.47688 32.0841C7.54243 32.0442 7.59914 31.9914 7.64352 31.9287C7.68789 31.8661 7.719 31.7951 7.73493 31.72" fill="#263238"/>
<path d="M10.3649 22.6301L9.95892 25.305L9.58092 25.248L9.93692 22.906L9.33691 22.814L9.38692 22.482L10.3649 22.6301Z" fill="#263238"/>
<path d="M10.7486 24.057C10.8806 23.186 11.4226 22.757 12.0486 22.857C12.6746 22.957 13.0626 23.519 12.9296 24.391C12.7966 25.263 12.2557 25.691 11.6297 25.591C11.0037 25.491 10.6116 24.928 10.7446 24.057M12.5446 24.33C12.6446 23.646 12.4107 23.258 11.9937 23.195C11.5767 23.132 11.2306 23.4311 11.1266 24.1151C11.0226 24.7991 11.2606 25.187 11.6816 25.251C12.1026 25.315 12.4406 25.014 12.5446 24.33Z" fill="#263238"/>
<path d="M17.988 16.59L17.582 19.265L17.204 19.208L17.56 16.866L16.96 16.774L17.01 16.441L17.988 16.59Z" fill="#263238"/>
<path d="M19.404 16.8L18.998 19.475L18.62 19.418L18.976 17.0751L18.376 16.983L18.426 16.651L19.404 16.8Z" fill="#263238"/>
<path d="M11.6839 25.867C15.1069 28.119 18.4839 30.4431 21.8839 32.7261C22.9585 33.4474 24.0369 34.1637 25.1189 34.8751C25.4489 35.0921 25.7569 34.562 25.4279 34.345C22.0049 32.093 18.6279 29.769 15.2279 27.486C14.1532 26.7647 13.0749 26.0484 11.9929 25.337C11.6619 25.12 11.3549 25.651 11.6839 25.867Z" fill="#D7504D"/>
<path d="M36.0354 49.928C36.0254 49.9971 35.9952 50.0616 35.9486 50.1135C35.9019 50.1654 35.841 50.2023 35.7734 50.2196C35.7058 50.2369 35.6345 50.2337 35.5687 50.2105C35.5029 50.1873 35.4455 50.1452 35.4036 50.0894C35.3617 50.0336 35.3374 49.9666 35.3335 49.8969C35.3297 49.8272 35.3466 49.758 35.3821 49.698C35.4176 49.6379 35.4701 49.5897 35.533 49.5594C35.5959 49.5292 35.6663 49.5183 35.7354 49.528C35.7814 49.5345 35.8256 49.55 35.8656 49.5737C35.9056 49.5973 35.9406 49.6286 35.9684 49.6658C35.9963 49.7029 36.0165 49.7452 36.028 49.7902C36.0395 49.8352 36.042 49.8821 36.0354 49.928Z" fill="#263238"/>
<path d="M27.2043 53.616C27.1944 53.6851 27.1641 53.7496 27.1175 53.8015C27.0709 53.8534 27.0099 53.8903 26.9423 53.9076C26.8747 53.9248 26.8035 53.9217 26.7377 53.8985C26.6719 53.8753 26.6144 53.8332 26.5726 53.7774C26.5307 53.7215 26.5063 53.6546 26.5025 53.5849C26.4987 53.5153 26.5156 53.446 26.5511 53.3859C26.5866 53.3259 26.6391 53.2777 26.7019 53.2475C26.7648 53.2172 26.8352 53.2063 26.9043 53.216C26.9503 53.2225 26.9946 53.238 27.0346 53.2617C27.0746 53.2853 27.1095 53.3166 27.1374 53.3537C27.1652 53.3909 27.1855 53.4332 27.197 53.4782C27.2085 53.5232 27.211 53.57 27.2043 53.616Z" fill="#263238"/>
<path d="M41.7034 42.751C41.6934 42.8201 41.6631 42.8847 41.6165 42.9365C41.5699 42.9884 41.5089 43.0253 41.4413 43.0426C41.3737 43.0599 41.3025 43.0567 41.2367 43.0335C41.1709 43.0103 41.1134 42.9682 41.0716 42.9124C41.0297 42.8566 41.0053 42.7896 41.0015 42.7199C40.9977 42.6503 41.0146 42.581 41.0501 42.521C41.0856 42.4609 41.1381 42.4127 41.2009 42.3825C41.2638 42.3522 41.3342 42.3413 41.4033 42.351C41.4493 42.3575 41.4936 42.3731 41.5336 42.3967C41.5736 42.4203 41.6085 42.4516 41.6364 42.4888C41.6642 42.5259 41.6845 42.5682 41.696 42.6132C41.7075 42.6582 41.71 42.7051 41.7034 42.751Z" fill="#263238"/>
<path d="M42.8518 32.831C42.8418 32.9001 42.8116 32.9647 42.765 33.0165C42.7183 33.0684 42.6574 33.1053 42.5898 33.1226C42.5222 33.1399 42.451 33.1367 42.3851 33.1135C42.3193 33.0904 42.2619 33.0482 42.22 32.9924C42.1782 32.9366 42.1538 32.8696 42.1499 32.7999C42.1461 32.7303 42.163 32.661 42.1985 32.601C42.234 32.5409 42.2865 32.4927 42.3494 32.4625C42.4123 32.4322 42.4827 32.4213 42.5518 32.4311C42.5978 32.4375 42.642 32.4531 42.682 32.4767C42.722 32.5003 42.7569 32.5316 42.7848 32.5688C42.8127 32.6059 42.8329 32.6482 42.8444 32.6932C42.8559 32.7382 42.8584 32.7851 42.8518 32.831Z" fill="#263238"/>
<path d="M39.6399 23.8601C39.6299 23.9291 39.5997 23.9936 39.5531 24.0455C39.5064 24.0974 39.4455 24.1343 39.3779 24.1516C39.3102 24.1689 39.239 24.1657 39.1732 24.1425C39.1074 24.1193 39.05 24.0772 39.0081 24.0214C38.9662 23.9656 38.9419 23.8986 38.938 23.8289C38.9342 23.7593 38.9511 23.69 38.9866 23.63C39.0221 23.5699 39.0746 23.5217 39.1375 23.4915C39.2004 23.4612 39.2708 23.4503 39.3399 23.46C39.3859 23.4665 39.4301 23.482 39.4701 23.5057C39.5101 23.5293 39.545 23.5606 39.5729 23.5978C39.6008 23.6349 39.6211 23.6772 39.6325 23.7222C39.644 23.7672 39.6465 23.8141 39.6399 23.8601Z" fill="#263238"/>
<path d="M32.9465 18.359C32.9365 18.4281 32.9063 18.4927 32.8597 18.5445C32.8131 18.5964 32.7521 18.6333 32.6845 18.6506C32.6169 18.6679 32.5457 18.6647 32.4799 18.6415C32.4141 18.6184 32.3566 18.5762 32.3147 18.5204C32.2729 18.4646 32.2485 18.3976 32.2447 18.3279C32.2408 18.2583 32.2578 18.189 32.2933 18.129C32.3288 18.0689 32.3813 18.0207 32.4441 17.9905C32.507 17.9602 32.5774 17.9493 32.6465 17.9591C32.6925 17.9655 32.7368 17.9811 32.7767 18.0047C32.8167 18.0283 32.8517 18.0596 32.8795 18.0968C32.9074 18.1339 32.9277 18.1762 32.9392 18.2212C32.9507 18.2662 32.9532 18.3131 32.9465 18.359Z" fill="#263238"/>
<path d="M9.74956 45.934C9.73981 46.0031 9.75074 46.0735 9.78098 46.1364C9.81122 46.1993 9.85942 46.2518 9.91949 46.2873C9.97955 46.3228 10.0488 46.3397 10.1184 46.3359C10.1881 46.332 10.2551 46.3077 10.3109 46.2658C10.3667 46.2239 10.4089 46.1665 10.4321 46.1007C10.4552 46.0349 10.4584 45.9637 10.4411 45.8961C10.4239 45.8285 10.387 45.7675 10.3351 45.7208C10.2832 45.6742 10.2186 45.644 10.1496 45.634C10.1036 45.6274 10.0568 45.6299 10.0118 45.6414C9.96675 45.6529 9.92446 45.6731 9.8873 45.701C9.85014 45.7289 9.81885 45.7638 9.79522 45.8038C9.77158 45.8438 9.75606 45.8881 9.74956 45.934Z" fill="#263238"/>
<path d="M17.0845 52.078C17.0748 52.1471 17.0857 52.2175 17.1159 52.2804C17.1462 52.3433 17.1944 52.3958 17.2544 52.4313C17.3145 52.4668 17.3837 52.4837 17.4534 52.4799C17.5231 52.4761 17.59 52.4517 17.6458 52.4098C17.7017 52.368 17.7438 52.3105 17.767 52.2447C17.7902 52.1789 17.7933 52.1077 17.7761 52.0401C17.7588 51.9725 17.7219 51.9115 17.67 51.8649C17.6181 51.8182 17.5536 51.788 17.4845 51.778C17.4385 51.7714 17.3917 51.7739 17.3467 51.7854C17.3017 51.7969 17.2594 51.8172 17.2223 51.845C17.1851 51.8729 17.1538 51.9078 17.1302 51.9478C17.1065 51.9878 17.091 52.032 17.0845 52.078Z" fill="#263238"/>
<path d="M6.47417 37.397C6.46441 37.4661 6.47535 37.5366 6.50559 37.5994C6.53583 37.6623 6.58403 37.7148 6.64409 37.7503C6.70416 37.7858 6.77339 37.8027 6.84305 37.7989C6.91272 37.7951 6.97969 37.7707 7.03551 37.7288C7.09132 37.687 7.13348 37.6295 7.15665 37.5637C7.17983 37.4979 7.18299 37.4267 7.16573 37.3591C7.14847 37.2915 7.11156 37.2305 7.05967 37.1839C7.00778 37.1372 6.94323 37.107 6.87417 37.097C6.8282 37.0904 6.78137 37.0929 6.73636 37.1044C6.69136 37.1159 6.64907 37.1362 6.61191 37.164C6.57475 37.1919 6.54345 37.2268 6.51981 37.2668C6.49618 37.3068 6.48067 37.351 6.47417 37.397Z" fill="#263238"/>
<path d="M8.32281 27.583C8.31305 27.6521 8.32398 27.7225 8.35422 27.7854C8.38447 27.8483 8.43266 27.9008 8.49273 27.9363C8.55279 27.9718 8.62202 27.9887 8.69169 27.9849C8.76135 27.981 8.82833 27.9567 8.88415 27.9148C8.93996 27.8729 8.98211 27.8155 9.00529 27.7497C9.02846 27.6839 9.03163 27.6127 9.01436 27.5451C8.9971 27.4775 8.96019 27.4165 8.9083 27.3699C8.85641 27.3232 8.79187 27.293 8.72282 27.283C8.67684 27.2764 8.63 27.2789 8.585 27.2904C8.53999 27.3019 8.49771 27.3221 8.46055 27.35C8.42339 27.3779 8.39208 27.4128 8.36844 27.4528C8.34481 27.4928 8.3293 27.537 8.32281 27.583Z" fill="#263238"/>
<path d="M14.0562 19.972C14.0464 20.0411 14.0574 20.1116 14.0876 20.1744C14.1179 20.2373 14.1661 20.2898 14.2261 20.3253C14.2862 20.3608 14.3554 20.3777 14.4251 20.3739C14.4948 20.3701 14.5617 20.3457 14.6175 20.3038C14.6733 20.2619 14.7155 20.2045 14.7387 20.1387C14.7619 20.0729 14.765 20.0017 14.7478 19.9341C14.7305 19.8665 14.6936 19.8055 14.6417 19.7589C14.5898 19.7122 14.5253 19.682 14.4562 19.672C14.4102 19.6654 14.3634 19.6679 14.3184 19.6794C14.2734 19.6909 14.2311 19.7111 14.1939 19.739C14.1568 19.7669 14.1255 19.8018 14.1018 19.8418C14.0782 19.8818 14.0627 19.926 14.0562 19.972Z" fill="#263238"/>
<path d="M22.0816 16.707C22.0718 16.7761 22.0828 16.8466 22.113 16.9094C22.1433 16.9723 22.1914 17.0248 22.2515 17.0603C22.3116 17.0958 22.3808 17.1127 22.4505 17.1089C22.5201 17.105 22.5871 17.0807 22.6429 17.0388C22.6987 16.9969 22.7409 16.9395 22.7641 16.8737C22.7873 16.8079 22.7904 16.7367 22.7731 16.6691C22.7559 16.6015 22.719 16.5405 22.6671 16.4939C22.6152 16.4472 22.5506 16.417 22.4816 16.407C22.4356 16.4004 22.3888 16.4029 22.3438 16.4144C22.2988 16.4259 22.2565 16.4461 22.2193 16.474C22.1822 16.5019 22.1509 16.5368 22.1272 16.5768C22.1036 16.6168 22.0881 16.661 22.0816 16.707Z" fill="#263238"/>
<path d="M26.6329 34.739C26.6562 35.0148 26.5972 35.2913 26.4634 35.5336C26.3297 35.7759 26.1271 35.973 25.8813 36.1002C25.6355 36.2274 25.3575 36.2789 25.0824 36.2482C24.8074 36.2174 24.5476 36.1059 24.336 35.9276C24.1243 35.7493 23.9702 35.5122 23.8932 35.2464C23.8162 34.9806 23.8197 34.6979 23.9032 34.434C23.9868 34.1702 24.1467 33.9371 24.3627 33.7641C24.5788 33.5911 24.8412 33.486 25.1169 33.462C25.3004 33.4461 25.4851 33.4666 25.6607 33.5222C25.8362 33.5778 25.999 33.6674 26.1398 33.7861C26.2807 33.9047 26.3967 34.0499 26.4813 34.2134C26.5659 34.377 26.6174 34.5556 26.6329 34.739Z" fill="#263238"/>
<g opacity="0.3">
<mask id="mask14_2_58" style="mask-type:luminance" maskUnits="userSpaceOnUse" x="1" y="42" width="9" height="11">
<path d="M9.4287 42.151H1.3457V52.074H9.4287V42.151Z" fill="white"/>
</mask>
<g mask="url(#mask14_2_58)">
<path d="M3.9847 42.151C3.10004 42.573 2.22037 43.0027 1.3457 43.44C2.43708 46.6268 4.15591 49.5626 6.4007 52.0741C7.4007 51.7447 8.41004 51.4001 9.4287 51.0401C6.93709 48.5489 5.07143 45.5026 3.9847 42.151Z" fill="white"/>
</g>
</g>
<g opacity="0.3">
<mask id="mask15_2_58" style="mask-type:luminance" maskUnits="userSpaceOnUse" x="30" y="11" width="10" height="7">
<path d="M39.2227 11.13H30.0557V17.153H39.2227V11.13Z" fill="white"/>
</mask>
<g mask="url(#mask15_2_58)">
<path d="M30.0557 13.686C32.86 14.3217 35.5131 15.4995 37.8657 17.153C38.0679 16.177 38.5381 15.2766 39.2237 14.553C36.9615 13.0141 34.4614 11.858 31.8237 11.131C31.0722 11.8576 30.4728 12.7265 30.0607 13.687" fill="white"/>
</g>
</g>
<g opacity="0.3">
<mask id="mask16_2_58" style="mask-type:luminance" maskUnits="userSpaceOnUse" x="8" y="52" width="6" height="4">
<path d="M13.3045 52.3931H8.27148V55.6581H13.3045V52.3931Z" fill="white"/>
</mask>
<g mask="url(#mask16_2_58)">
<path d="M13.3046 54.1321C12.4666 53.6067 11.6648 53.0257 10.9046 52.393C9.99175 52.8544 9.11078 53.3762 8.26758 53.9551C8.93657 54.559 9.63759 55.1265 10.3676 55.655C11.3156 55.101 12.2986 54.597 13.3046 54.129" fill="white"/>
</g>
</g>
<g opacity="0.3">
<mask id="mask17_2_58" style="mask-type:luminance" maskUnits="userSpaceOnUse" x="43" y="20" width="5" height="8">
<path d="M47.4718 20.367H43.9658V27.287H47.4718V20.367Z" fill="white"/>
</mask>
<g mask="url(#mask17_2_58)">
<path d="M45.8088 27.287C46.3278 26.137 46.8738 25.002 47.4718 23.9C46.8389 22.664 46.1051 21.4823 45.2778 20.367C44.8498 21.4517 44.4125 22.5324 43.9658 23.609C44.6925 24.7755 45.3095 26.0067 45.8088 27.287Z" fill="white"/>
</g>
</g>
<g opacity="0.3">
<mask id="mask18_2_58" style="mask-type:luminance" maskUnits="userSpaceOnUse" x="3" y="13" width="44" height="45">
<path d="M46.9186 13.522H3.30859V57.138H46.9186V13.522Z" fill="white"/>
</mask>
<g mask="url(#mask18_2_58)">
<path d="M25.1594 57.138C24.0473 57.1377 22.9368 57.0535 21.8374 56.886C16.2885 56.0332 11.2857 53.0641 7.87879 48.6019C4.47191 44.1398 2.92586 38.5314 3.5651 32.9539C4.20434 27.3763 6.97917 22.2632 11.3073 18.6875C15.6353 15.1118 21.1802 13.3516 26.7782 13.7763C32.3762 14.2009 37.5921 16.7774 41.3313 20.965C45.0704 25.1527 47.0422 30.6259 46.8328 36.2361C46.6233 41.8462 44.249 47.1572 40.208 51.0543C36.167 54.9515 30.7735 57.132 25.1594 57.138ZM25.0684 13.931C19.5193 13.9346 14.1873 16.0878 10.1918 19.9386C6.19637 23.7895 3.84814 29.0385 3.64013 34.5837C3.43212 40.129 5.38051 45.5391 9.07626 49.6785C12.772 53.8179 17.9277 56.3645 23.461 56.7837C28.9942 57.203 34.4748 55.4622 38.752 51.9269C43.0292 48.3917 45.7705 43.3368 46.4004 37.8235C47.0302 32.3103 45.4997 26.7674 42.13 22.3585C38.7604 17.9496 33.8137 15.0176 28.3284 14.1781C27.2495 14.0137 26.1598 13.9311 25.0684 13.931Z" fill="black"/>
</g>
</g>
</svg>
